<svg height="512" viewBox="0 0 512 512" width="512" xmlns="http://www.w3.org/2000/svg"><g id="filled_outline" data-name="filled outline"><path d="m152 488c-4.418 0-8 4.418-8 0v-32a8 8 0 0 1 16 0v32c0 4.418-3.582 0-8 0z" fill="#683b0d"/><path d="m104 488c-4.418 0-8 4.418-8 0v-32a8 8 0 0 1 16 0v32c0 4.418-3.582 0-8 0z" fill="#683b0d"/><circle cx="104" cy="424" fill="#027e2a" r="32"/><path d="m256 24a120 120 0 0 0 -120 120 161.311 161.311 0 0 0 34.7 99.953l85.3 108.047 85.3-108.047a161.311 161.311 0 0 0 34.7-99.953 120 120 0 0 0 -120-120z" fill="#0296e5"/><circle cx="256" cy="144" fill="#43dcfe" r="72"/><path d="m256 184a40 40 0 0 1 0-80 8 8 0 0 1 0 16 24 24 0 0 0 0 48 8 8 0 0 1 0 16z" fill="#0276b4"/><path d="m336 488h-128v-96l64-96 64 88z" fill="#eaeae8"/><path d="m336 384-64-88h120l64 88z" fill="#d32b39"/><path d="m432 352h-29.38l23.28 32h-19.79l-23.27-32h-20.22l23.27 32h-19.78l-23.27-32h-30.11l-11.64-16h30.11l-28.39-39.04a6.049 6.049 0 0 1 -.59-.96h19.67l29.09 40h20.22l-29.09-40h19.78l29.09 40h30.11l11.61 15.97c-.23.02-.46.03-.7.03z" fill="#961b20"/><path d="m336 384h120v104h-120z" fill="#cbcbcb"/><path d="m272 384a24 24 0 0 1 24 24v80a0 0 0 0 1 0 0h-48a0 0 0 0 1 0 0v-80a24 24 0 0 1 24-24z" fill="#0276b4"/><path d="m368 416h56v40h-56z" fill="#0292c9"/><path d="m368 416h48v32h-48z" fill="#43dcfe"/><path d="m432 352h-29.38l23.28 32h-19.79l-23.27-32h-20.22l23.27 32h-19.78l-23.27-32h-30.11l-11.64-16h30.11l-28.39-39.04a6.049 6.049 0 0 1 -.59-.96h19.67l29.09 40h20.22l-29.09-40h19.78l29.09 40h30.11l11.61 15.97c-.23.02-.46.03-.7.03z" fill="#961b20"/><rect fill="#02a437" height="96" rx="24" width="48" x="128" y="360"/><path d="m488 496h-408a8 8 0 0 1 0-16h408a8 8 0 0 1 0 16z" fill="#a8a8a8"/><path d="m256 120a8 8 0 0 0 0-16 40 40 0 0 0 0 80 8 8 0 0 0 0-16 24 24 0 0 1 0-48z"/><path d="m424 408h-56a8 8 0 0 0 -8 8v40a8 8 0 0 0 8 8h56a8 8 0 0 0 8-8v-40a8 8 0 0 0 -8-8zm-8 40h-40v-24h40z"/><path d="m336 144a80 80 0 1 0 -80 80 80.091 80.091 0 0 0 80-80zm-80 64a64 64 0 1 1 64-64 64.072 64.072 0 0 1 -64 64z"/><path d="m488 480h-24s-.016-96.424-.032-96.634a5.562 5.562 0 0 0 -1.3-3.782c-.03-.044-64.2-88.289-64.2-88.289a8 8 0 0 0 -6.468-3.295h-75.281l30.86-39.09a170.014 170.014 0 0 0 36.421-104.91 128 128 0 0 0 -256 0 170.014 170.014 0 0 0 36.421 104.91l70.133 88.837-33.21 49.815a8 8 0 0 0 -1.344 4.438v88h-40v-17.013a32.057 32.057 0 0 0 24-30.987v-48a32 32 0 0 0 -64 0v3.35a40 40 0 1 0 -24 75.85v16.8h-16a8 8 0 0 0 0 16h408a8 8 0 0 0 0-16zm-144 0v-88h104v88zm3.927-176 23.273 32h-20.218l-23.272-32zm32.146 72-17.454-24h20.217l17.454 24zm40 0-17.454-24h20.216l17.455 24zm-112.146-72 23.273 32h-19.2a8.159 8.159 0 0 0 -.97.064l-23.32-32.064zm34.909 48 17.454 24h-20.217l-17.454-24zm68.364-16h-20.218l-23.272-32h20.216zm-234.22-97a153.946 153.946 0 0 1 -32.98-95 112 112 0 0 1 224 0 153.946 153.946 0 0 1 -32.979 95l-38.262 48.465c-.138.175-.261.356-.383.539l-24.584.006c-.212.006-5.11 1.55-6.448 3.556l-21.457 32.185zm39.02 155.422 35.022-52.533.032-.047 21.232-31.848 55.714 76.606v93.4h-24v-72a32 32 0 0 0 -64 0v72h-24zm40 85.578v-72a16 16 0 0 1 32 0v72zm-120-96a16 16 0 0 1 32 0v48a15.989 15.989 0 0 1 -28.365 10.135 39.883 39.883 0 0 0 -3.721-42.217 7.98 7.98 0 0 0 .086-1.111zm-56 40a24 24 0 1 1 24 24 24.028 24.028 0 0 1 -24-24zm32 39.2a39.888 39.888 0 0 0 17.536-8.433 32.283 32.283 0 0 0 14.464 8.186v17.047h-32z"/></g></svg>