<svg id="Layer_3" enable-background="new 0 0 64 64" height="512" viewBox="0 0 64 64" width="512" xmlns="http://www.w3.org/2000/svg"><g><path d="m54 25v28c0-2.209 1.791-4 4-4s4 1.791 4 4-1.791 4-4 4h-52c-2.209 0-4-1.791-4-4s1.791-4 4-4 4 1.791 4 4v-28z" fill="#f7d881"/><path d="m38.961 28.385c1.217.514 2.039 1.493 2.039 2.615 0 1.657-1.791 3-4 3s-4-1.343-4-3c0-1.122.822-2.101 2.039-2.615" fill="#f2c351"/><path d="m10 39h4c1.105 0 2-.895 2-2v-2.838c0-1.291.826-2.438 2.051-2.846l4.897-1.632c1.226-.409 2.052-1.555 2.052-2.846v-1.838h4v2.675c0 2.583-1.653 4.875-4.103 5.692l-4.214 1.405c-.408.136-.683.518-.683.949v1.279c0 1.105.895 2 2 2h20c1.105 0 2-.895 2-2v-12h4v12c0 1.105.895 2 2 2h4v4h-5c-.552 0-1 .448-1 1v4c0 .552.448 1 1 1h5v4h-5c-.552 0-1 .448-1 1v3h-4v-12c0-1.105-.895-2-2-2h-9c-1.105 0-2 .895-2 2v12h-4v-14h-7v.789c0 4.702-1.392 9.299-4 13.211h-5l.931-1.304c2.647-3.704 4.069-8.143 4.069-12.696h-6z" fill="#8892a0"/><path d="m2 53c0-2.209 1.791-4 4-4s4 1.791 4 4v-28c0-2.209-1.791-4-4-4s-4 1.791-4 4z" fill="#78b75b"/><path d="m54 53c0-2.209 1.791-4 4-4s4 1.791 4 4v-28c0-2.209-1.791-4-4-4s-4 1.791-4 4z" fill="#78b75b"/><path d="m37 31 7.2-9.6c1.168-1.558 1.8-3.453 1.8-5.4 0-4.971-4.029-9-9-9-4.971 0-9 4.029-9 9 0 1.947.632 3.842 1.8 5.4z" fill="#e47c6e"/><circle cx="37" cy="15" fill="#e7e4dd" r="4"/><path d="m54 25v19.855c3.752-4.722 6-10.693 6-17.193 0-2.221-.269-4.378-.763-6.447-.392-.128-.802-.215-1.237-.215-2.209 0-4 1.791-4 4z" fill="#96cc7f"/><path d="m2 25v19.855c3.752-4.722 6-10.693 6-17.193 0-2.221-.269-4.378-.763-6.447-.392-.128-.802-.215-1.237-.215-2.209 0-4 1.791-4 4z" fill="#96cc7f"/><g><path d="m57.999 19.998c-2.415.002-4.435 1.723-4.898 4.002h-9.602l1.5-2.001c1.29-1.719 2-3.851 2-6 0-5.515-4.486-10-10.001-10-5.513.001-9.998 4.487-9.998 10.001 0 2.15.71 4.28 1.999 5.999l1.501 2.001-19.602-.001c-.464-2.28-2.483-4.001-4.899-4.001-2.757 0-5 2.243-5 5v28.001c0 2.757 2.243 5 4.999 5l52.002.001c2.757 0 5-2.243 5-5v-28c0-2.758-2.243-5.002-5.001-5.002zm-4.999 28h-4v-3.999h4zm0-5.999h-4c-1.104 0-2 .896-2 2v3.999c0 1.104.896 2 2 2h4v2.002l-4-.001c-1.104 0-2 .896-2 2v2.001h-2.001l-.001-11.001c0-1.654-1.346-3-3-3h-8.998c-1.654 0-3 1.346-3 3v11h-2.001v-13c0-.553-.447-1-1-1h-6.999c-.553 0-1 .447-1 1v.788c0 4.344-1.237 8.551-3.559 12.212h-2.514c2.659-3.836 4.072-8.32 4.073-13 .001-.266-.104-.52-.292-.707-.188-.188-.442-.293-.708-.293h-5v-2.001h3c1.653 0 3-1.346 3-3l-.002-2.836c0-.863.55-1.626 1.368-1.898l4.897-1.632c1.636-.545 2.734-2.07 2.734-3.795v-.837h2.003v1.674c-.001 2.156-1.376 4.062-3.42 4.744l-4.213 1.404c-.818.272-1.368 1.035-1.368 1.898v1.278c.001 1.654 1.347 2.999 3 2.999h19.999c1.654 0 3-1.346 3-2.999l.002-11h2v10.999c0 1.654 1.346 3 3 3h3zm-10.001 14.001h-10.999v-11c0-.552.448-1 1-1h8.998c.552 0 1 .448 1 1zm-17-.001h-8.212c2.072-3.661 3.176-7.771 3.212-12h5zm-10.999-19.001c0 .552-.449 1-1 1h-3.001v-12l12.999.001v.837c0 .863-.549 1.626-1.366 1.898l-4.897 1.632c-1.637.546-2.736 2.07-2.736 3.796zm38 1h-3c-.552 0-1-.448-1-1v-10.999h4zm-16-29.999c4.411 0 7.999 3.589 7.999 8.001 0 1.719-.568 3.423-1.601 4.799l-6.399 8.534-6.399-8.534c-1.032-1.375-1.6-3.079-1.6-4.8 0-4.411 3.589-8 8-8zm2.998 23c0 1.085-1.373 2-2.999 2-1.627 0-3-.915-3-2 0-.481.288-.944.769-1.308l1.432 1.909c.189.252.485.4.8.4.314-.001.61-.148.8-.4l1.431-1.908c.479.363.767.827.767 1.307zm-6.435-2.914c-.986.743-1.564 1.789-1.564 2.914 0 2.206 2.242 4 5 4 2.757 0 4.999-1.794 4.999-4 0-1.124-.578-2.17-1.563-2.914l1.565-2.086h1l-.002 10.999c0 .552-.448 1-1 1h-19.999c-.552 0-1-.448-1-1v-1.278l4.213-1.404c2.862-.954 4.786-3.622 4.788-6.642v-1.674h2zm-30.564-3.087c0-1.653 1.347-3 3-3 1.654 0 3 1.347 3 3v24.003c-.836-.629-1.875-1.002-3-1.002-1.124 0-2.163.373-3 1.002zm0 28.001c0-1.654 1.347-3 3-3 1.654 0 3 1.346 3 3 0 .552.448 1 1 1 .553 0 1-.448 1-1v-9h3.977c-.189 4.009-1.514 7.832-3.859 11.115l-.632.885h-4.487c-1.653 0-2.999-1.347-2.999-3zm55.001 3.001h-9l-.001-2.001 5 .001h.001c.552 0 1-.448 1-1 0-1.654 1.346-3 3-3 1.653 0 3 1.346 3 3 0 1.653-1.347 3-3 3zm3-6.998c-.837-.629-1.876-1.002-3-1.002-1.125 0-2.164.373-3 1.002v-24.003c-.001-.802.311-1.555.878-2.121.566-.566 1.32-.879 2.122-.88 1.653 0 3 1.347 3 3.002z"/><path d="m37 19.999c2.757 0 4.999-2.242 4.999-4.999 0-2.758-2.242-5-4.999-5-2.758 0-5 2.242-5 5 0 2.757 2.242 4.999 5 4.999zm0-7.999c1.653 0 2.999 1.346 2.999 3 0 1.653-1.346 2.999-2.999 2.999-1.654 0-3-1.346-3-2.999 0-1.654 1.346-3 3-3z"/></g></g></svg>