<?xml version="1.0" encoding="utf-8"?>
<!-- Generator: Adobe Illustrator 19.0.0, SVG Export Plug-In . SVG Version: 6.00 Build 0)  -->
<svg version="1.1" id="Layer_1" xmlns="http://www.w3.org/2000/svg" xmlns:xlink="http://www.w3.org/1999/xlink" x="0px" y="0px"
	 viewBox="0 0 200 200" style="enable-background:new 0 0 200 200;" xml:space="preserve">
<style type="text/css">
	.st0{fill:#FFFFFF;}
</style>
<g id="XMLID_14_">
	<g id="XMLID_29_">
		<path id="XMLID_30_" class="st0" d="M179.6,9.7H23.2c-7.7,0-14,6.3-14,14v113.5v9.8c0,7.7,6.3,13.9,14,13.9h57.6v14.8h-3.9
			c-8.5,0-15.5,7-15.5,15.5c0,1.6,1.2,2.8,2.8,2.8h74.5c1.6,0,2.8-1.2,2.8-2.8c0-8.5-7-15.5-15.5-15.5H122V161h57.6
			c7.7,0,14-6.2,14-13.9v-9.8V23.8C193.6,16,187.3,9.7,179.6,9.7z M14.8,23.8c0-4.6,3.8-8.4,8.4-8.4h156.4c4.6,0,8.4,3.7,8.4,8.4
			v110.7h-15.2V69.3c0-1.6-1.3-2.7-2.8-2.7c-1.5,0-2.8,1.2-2.8,2.7v65.2h-14V77.7c0-1.5-1.2-2.7-2.8-2.7c-1.5,0-2.8,1.2-2.8,2.7
			v56.8h-14v-40c0-1.5-1.2-2.7-2.8-2.7c-1.5,0-2.8,1.2-2.8,2.7v40h-14V88.8c0-1.5-1.2-2.7-2.8-2.7c-1.5,0-2.8,1.2-2.8,2.7v45.6h-14
			V100c0-1.6-1.2-2.8-2.8-2.8c-1.6,0-2.8,1.2-2.8,2.8v34.4h-14v-28.8c0-1.5-1.2-2.8-2.8-2.8c-1.5,0-2.8,1.3-2.8,2.8v28.8h-14v-40
			c0-1.5-1.2-2.7-2.8-2.7c-1.5,0-2.8,1.2-2.8,2.7v40h-14v-23.2c0-1.6-1.2-2.8-2.8-2.8c-1.5,0-2.8,1.2-2.8,2.8v23.2H14.8V23.8z
			 M135.5,188.6H67.4c1.2-4.1,5.1-7.1,9.5-7.1h6.7h35.7h6.7C130.5,181.5,134.3,184.4,135.5,188.6z M116.4,175.8h-30V161h30V175.8z
			 M188,147.1c0,4.6-3.8,8.4-8.4,8.4h-60.4H83.6H23.2c-4.6,0-8.4-3.8-8.4-8.4v-7H188V147.1z"/>
	</g>
	<g id="XMLID_27_">
		<path id="XMLID_7_" class="st0" d="M109.9,69.7L90.5,80.6l-18.1,5.2L53.8,75.3c-1-0.6-2.3-0.4-3.2,0.3L31,92.3
			c-1.2,1-1.3,2.7-0.3,3.9c0.6,0.7,1.4,1,2.2,1c0.6,0,1.3-0.3,1.8-0.7L52.8,81l17.9,10.2c0.7,0.4,1.4,0.5,2.2,0.3l19.6-5.6
			c0.2-0.1,0.4-0.2,0.6-0.2l18.6-10.6l18.4,5.3c0.9,0.2,1.9,0,2.6-0.6l19.3-16.5l5.9-2.5l2.2,5.1l10-13.3l-16.6-2l2.2,5.1l-6.3,2.6
			c-0.2,0.2-0.5,0.3-0.7,0.4l-18.5,15.8L112,69.4C111.3,69.2,110.5,69.3,109.9,69.7z"/>
	</g>
	<g id="XMLID_25_">
		<path id="XMLID_6_" class="st0" d="M91.5,34h19.7c1.6,0,2.8-1.2,2.8-2.8c0-1.5-1.2-2.7-2.8-2.7H91.5c-1.5,0-2.8,1.2-2.8,2.7
			C88.7,32.8,90,34,91.5,34z"/>
	</g>
	<g id="XMLID_23_">
		<path id="XMLID_5_" class="st0" d="M32.9,34h44.9c1.5,0,2.8-1.2,2.8-2.8c0-1.5-1.2-2.7-2.8-2.7H32.9c-1.5,0-2.8,1.2-2.8,2.7
			C30,32.8,31.3,34,32.9,34z"/>
	</g>
	<g id="XMLID_21_">
		<path id="XMLID_4_" class="st0" d="M111.2,51.1c1.6,0,2.8-1.2,2.8-2.8c0-1.5-1.2-2.7-2.8-2.7H77.6c-1.5,0-2.8,1.2-2.8,2.7
			c0,1.6,1.2,2.8,2.8,2.8H111.2z"/>
	</g>
	<g id="XMLID_19_">
		<path id="XMLID_3_" class="st0" d="M32.9,51.1h30.9c1.5,0,2.8-1.2,2.8-2.8c0-1.5-1.2-2.7-2.8-2.7H32.9c-1.5,0-2.8,1.2-2.8,2.7
			C30,49.9,31.3,51.1,32.9,51.1z"/>
	</g>
	<g id="XMLID_17_">
		<path id="XMLID_2_" class="st0" d="M56.6,65.5c0,1.6,1.2,2.7,2.8,2.7h26.7c1.5,0,2.8-1.2,2.8-2.7c0-1.6-1.2-2.8-2.8-2.8H59.4
			C57.8,62.6,56.6,63.9,56.6,65.5z"/>
	</g>
	<g id="XMLID_15_">
		<path id="XMLID_1_" class="st0" d="M32.9,68.2h12.7c1.5,0,2.8-1.2,2.8-2.7c0-1.6-1.2-2.8-2.8-2.8H32.9c-1.5,0-2.8,1.2-2.8,2.8
			C30,67,31.3,68.2,32.9,68.2z"/>
	</g>
</g>
</svg>
