<?xml version="1.0" encoding="utf-8"?>
<!-- Generator: Adobe Illustrator 19.0.0, SVG Export Plug-In . SVG Version: 6.00 Build 0)  -->
<svg version="1.1" id="Layer_1" xmlns="http://www.w3.org/2000/svg" xmlns:xlink="http://www.w3.org/1999/xlink" x="0px" y="0px"
	 viewBox="0 0 1280 800" style="enable-background:new 0 0 1280 800;" xml:space="preserve">
<style type="text/css">
	.st0{fill:#D2D9FF;}
	.st1{fill:#AFC0FB;}
	.st2{fill:none;stroke:#557EFF;stroke-linecap:round;stroke-miterlimit:10;}
	.st3{fill:none;stroke:#557EFF;stroke-linecap:round;stroke-miterlimit:10;stroke-dasharray:8.0101,8.0101;}
	.st4{fill:#7DA2FF;}
	.st5{fill:#3F63FD;}
	.st6{fill:#2B284F;}
	.st7{fill:#E9EFFF;}
	.st8{fill:#557EFF;}
	.st9{fill:#F9C94E;}
	.st10{fill:#F8CDCF;}
	.st11{fill:#2B1E28;}
	.st12{fill:#6682FE;}
	.st13{fill:#4358BC;}
	.st14{fill:#211E35;}
	.st15{fill:#536CC4;}
	.st16{fill:#E8E9FE;}
</style>
<ellipse id="XMLID_51_" class="st0" cx="665.2" cy="643.7" rx="367" ry="39.9"/>
<path id="XMLID_50_" class="st1" d="M441.2,623.2h455.5c55.1,0,99.9-44.1,101.3-99.2c0.8-31-2.3-64.5-13.9-92.7
	c-31.5-76.5-93.7-82.8-93.7-145.5c0-62.6-28.6-168.6-116.6-168.6c-88,0-101.4,102.3-134.9,91.4c-33.5-11-74.4-109.6-185.5-91.4
	c-111.1,18.3-187,206.8-129.2,433.2c0,0,0.4,1.4,1.2,3.8c13.3,41.1,51.7,68.9,94.9,68.9H441.2z"/>
<g id="XMLID_49_">
	<g id="XMLID_67_">
		<path id="XMLID_70_" class="st2" d="M602.5,94.7c0,0-0.5-1.4-1.5-3.7"/>
		<path id="XMLID_69_" class="st3" d="M597.5,83.8c-10-18.9-35.8-55.3-83.6-49.2c-64.1,8.3-73.3,68.2-70.1,85.7
			c4.9,26.4,36.8,46.9,57.9,28.9c39.4-33.5,12.2-94-63.7-102.4S313.7,108.2,348.8,174c37.1,69.5,147.3,73.6,113.1,200.7
			c-29.4,109.1-129.1,72.9-156.8,60.4"/>
		<path id="XMLID_68_" class="st2" d="M301.4,433.4c-2.3-1.1-3.6-1.8-3.6-1.8"/>
	</g>
</g>
<g id="XMLID_130_">
	<path id="XMLID_48_" class="st4" d="M821.4,572.9c0,0,6.4-39,25.6-52.9c19.2-13.8,44.8-3.6,61.2-27c16.4-23.4,21.9-29.8,53-40.3
		c31.1-10.5,34.7-16.2,34.7-16.2S974,561,897.2,576.6C858.8,583,821.4,572.9,821.4,572.9z"/>
	<g id="XMLID_47_">
		<path id="XMLID_61_" class="st5" d="M908.6,526.3c0,0-2.3,0.6-6.2,1.9c-2,0.6-4.4,1.5-7.1,2.5c-1.4,0.5-2.8,1-4.3,1.6
			c-1.5,0.6-3.1,1.2-4.7,1.9c-3.3,1.3-6.8,2.9-10.5,4.6c-1.8,0.9-3.7,1.8-5.6,2.8c-1.9,1-3.8,2-5.8,3.1c-3.9,2.2-7.8,4.5-11.7,7.1
			c-3.9,2.6-7.7,5.3-11.7,8c-3.9,2.7-7.9,5.3-11.6,8.2c-3.7,2.8-7.1,5.9-10.1,9.2c-2.9,3.4-5.3,6.9-7.4,10.4c-1,1.7-1.9,3.5-2.9,5.2
			c-0.8,1.7-1.6,3.4-2.4,5c-0.8,1.6-1.4,3.2-2.1,4.7c-0.3,0.7-0.7,1.5-1,2.2c-0.3,0.7-0.6,1.4-0.9,2.1c-1.1,2.7-2.1,5-2.8,6.9
			c-1.5,3.9-2.3,6.1-2.3,6.1s0.8-2.2,2.2-6.2c0.7-2,1.6-4.3,2.6-7c0.3-0.7,0.5-1.4,0.8-2.1c0.3-0.7,0.6-1.4,0.9-2.2
			c0.6-1.5,1.3-3.1,2-4.7c0.8-1.6,1.5-3.3,2.4-5c0.9-1.7,1.8-3.5,2.8-5.3c2-3.5,4.5-7.2,7.4-10.6c3-3.4,6.4-6.5,10.1-9.3
			c3.7-2.9,7.7-5.5,11.6-8.2c3.9-2.6,7.8-5.4,11.7-8c3.9-2.6,7.9-4.9,11.8-7c2-1,3.9-2.1,5.8-3c1.9-0.9,3.8-1.8,5.7-2.7
			c3.7-1.7,7.3-3.2,10.6-4.5c3.3-1.3,6.4-2.4,9.1-3.3c2.7-0.9,5.2-1.7,7.1-2.3C906.3,526.9,908.6,526.3,908.6,526.3z"/>
	</g>
</g>
<g id="XMLID_125_">
	<path id="XMLID_46_" class="st5" d="M950.2,416.9c0,0-152.4-12.2-136.5,121.3c0,0,48.8,13.8,93.5-30.5S950.2,416.9,950.2,416.9z"/>
	<g id="XMLID_45_">
		<path id="XMLID_62_" class="st4" d="M797.6,608.8c0,0-0.1-2.4,0.2-6.7c0.2-4.2,0.7-10.3,1.9-17.5c0.6-3.6,1.3-7.5,2.2-11.6
			c0.9-4.1,2-8.3,3.3-12.7c1.3-4.4,2.8-8.8,4.5-13.3c1.7-4.5,3.6-9,5.6-13.4c1.1-2.2,2.1-4.4,3.3-6.5c1.2-2.1,2.3-4.3,3.5-6.3
			c2.4-4.1,4.9-8.1,7.5-11.9c2.6-3.8,5.3-7.2,7.9-10.5c1.4-1.6,2.7-3.2,4-4.6c1.3-1.4,2.6-2.8,3.9-4.2c0.6-0.7,1.2-1.3,1.9-1.9
			c0.6-0.6,1.2-1.2,1.8-1.8c1.2-1.1,2.3-2.3,3.4-3.2c2.2-1.9,4.1-3.7,5.8-5c3.3-2.7,5.2-4.2,5.2-4.2s-1.9,1.6-5.1,4.3
			c-1.6,1.4-3.5,3.2-5.6,5.2c-1.1,1-2.2,2.2-3.3,3.3c-1.1,1.2-2.4,2.4-3.6,3.7c-1.2,1.3-2.5,2.7-3.8,4.2c-1.3,1.5-2.5,3.1-3.9,4.7
			c-2.6,3.3-5.2,6.8-7.8,10.5c-2.6,3.7-5.1,7.7-7.4,11.8c-1.2,2-2.3,4.2-3.4,6.3c-1.1,2.1-2.1,4.3-3.2,6.5c-2,4.4-4,8.8-5.6,13.3
			c-1.7,4.4-3.2,8.9-4.5,13.2c-1.3,4.4-2.5,8.6-3.4,12.6c-1,4-1.7,7.9-2.4,11.5c-1.2,7.2-2,13.2-2.3,17.4
			C797.6,606.3,797.6,608.8,797.6,608.8z"/>
	</g>
</g>
<g id="XMLID_85_">
	<path id="XMLID_44_" class="st6" d="M806.2,624.4h-310c-1.9,0-3.5-1.6-3.5-3.5V103.5c0-1.9,1.6-3.5,3.5-3.5h310
		c1.9,0,3.5,1.6,3.5,3.5V621C809.7,622.9,808.1,624.4,806.2,624.4z"/>
	<path id="XMLID_43_" class="st7" d="M785.2,558.5H517.3c-1.9,0-3.5-1.6-3.5-3.5V124.5c0-1.9,1.6-3.5,3.5-3.5h267.9
		c1.9,0,3.5,1.6,3.5,3.5v430.5C788.6,557,787.1,558.5,785.2,558.5z"/>
	<circle id="XMLID_42_" class="st7" cx="649.8" cy="590.8" r="15.4"/>
	<rect id="XMLID_41_" x="555.9" y="255.6" class="st8" width="22.4" height="89.7"/>
	<rect id="XMLID_40_" x="578.3" y="191.1" class="st9" width="22.4" height="154.2"/>
	<rect id="XMLID_39_" x="600.7" y="213.6" class="st8" width="22.4" height="131.8"/>
	<rect id="XMLID_38_" x="623.2" y="236" class="st9" width="22.4" height="109.4"/>
	<rect id="XMLID_37_" x="645.6" y="292.1" class="st8" width="22.4" height="53.3"/>
	<g id="XMLID_115_">
		<path id="XMLID_36_" class="st8" d="M763.4,215h-61.7c-0.8,0-1.4-0.6-1.4-1.4c0-0.8,0.6-1.4,1.4-1.4h61.7c0.8,0,1.4,0.6,1.4,1.4
			C764.8,214.4,764.2,215,763.4,215z"/>
	</g>
	<g id="XMLID_113_">
		<path id="XMLID_35_" class="st8" d="M764.8,231.8h-61.7c-0.8,0-1.4-0.6-1.4-1.4c0-0.8,0.6-1.4,1.4-1.4h61.7c0.8,0,1.4,0.6,1.4,1.4
			C766.2,231.2,765.6,231.8,764.8,231.8z"/>
	</g>
	<g id="XMLID_111_">
		<path id="XMLID_34_" class="st8" d="M764.8,248.6h-61.7c-0.8,0-1.4-0.6-1.4-1.4s0.6-1.4,1.4-1.4h61.7c0.8,0,1.4,0.6,1.4,1.4
			S765.6,248.6,764.8,248.6z"/>
	</g>
	<g id="XMLID_109_">
		<path id="XMLID_33_" class="st8" d="M764.8,265.5h-61.7c-0.8,0-1.4-0.6-1.4-1.4c0-0.8,0.6-1.4,1.4-1.4h61.7c0.8,0,1.4,0.6,1.4,1.4
			C766.2,264.8,765.6,265.5,764.8,265.5z"/>
	</g>
	<g id="XMLID_107_">
		<path id="XMLID_32_" class="st8" d="M764.8,282.3h-61.7c-0.8,0-1.4-0.6-1.4-1.4c0-0.8,0.6-1.4,1.4-1.4h61.7c0.8,0,1.4,0.6,1.4,1.4
			C766.2,281.7,765.6,282.3,764.8,282.3z"/>
	</g>
	<g id="XMLID_105_">
		<path id="XMLID_31_" class="st8" d="M764.8,299.1h-61.7c-0.8,0-1.4-0.6-1.4-1.4s0.6-1.4,1.4-1.4h61.7c0.8,0,1.4,0.6,1.4,1.4
			S765.6,299.1,764.8,299.1z"/>
	</g>
	<g id="XMLID_103_">
		<path id="XMLID_30_" class="st8" d="M764.8,315.9h-61.7c-0.8,0-1.4-0.6-1.4-1.4s0.6-1.4,1.4-1.4h61.7c0.8,0,1.4,0.6,1.4,1.4
			S765.6,315.9,764.8,315.9z"/>
	</g>
	<g id="XMLID_101_">
		<path id="XMLID_29_" class="st8" d="M663.8,402.9H546.1c-0.8,0-1.4-0.6-1.4-1.4s0.6-1.4,1.4-1.4h117.8c0.8,0,1.4,0.6,1.4,1.4
			S664.6,402.9,663.8,402.9z"/>
	</g>
	<g id="XMLID_99_">
		<path id="XMLID_28_" class="st8" d="M663.8,419.7H546.1c-0.8,0-1.4-0.6-1.4-1.4s0.6-1.4,1.4-1.4h117.8c0.8,0,1.4,0.6,1.4,1.4
			S664.6,419.7,663.8,419.7z"/>
	</g>
	<g id="XMLID_97_">
		<path id="XMLID_27_" class="st8" d="M663.8,436.5H546.1c-0.8,0-1.4-0.6-1.4-1.4c0-0.8,0.6-1.4,1.4-1.4h117.8
			c0.8,0,1.4,0.6,1.4,1.4C665.2,435.9,664.6,436.5,663.8,436.5z"/>
	</g>
	<g id="XMLID_95_">
		<path id="XMLID_26_" class="st8" d="M663.8,453.4H546.1c-0.8,0-1.4-0.6-1.4-1.4c0-0.8,0.6-1.4,1.4-1.4h117.8
			c0.8,0,1.4,0.6,1.4,1.4C665.2,452.7,664.6,453.4,663.8,453.4z"/>
	</g>
	<g id="XMLID_93_">
		<path id="XMLID_25_" class="st8" d="M663.8,470.2H546.1c-0.8,0-1.4-0.6-1.4-1.4s0.6-1.4,1.4-1.4h117.8c0.8,0,1.4,0.6,1.4,1.4
			S664.6,470.2,663.8,470.2z"/>
	</g>
	<g id="XMLID_91_">
		<path id="XMLID_24_" class="st8" d="M663.8,487H546.1c-0.8,0-1.4-0.6-1.4-1.4s0.6-1.4,1.4-1.4h117.8c0.8,0,1.4,0.6,1.4,1.4
			S664.6,487,663.8,487z"/>
	</g>
	<g id="XMLID_89_">
		<path id="XMLID_23_" class="st8" d="M663.8,506.7H546.1c-0.8,0-1.4-0.6-1.4-1.4s0.6-1.4,1.4-1.4h117.8c0.8,0,1.4,0.6,1.4,1.4
			S664.6,506.7,663.8,506.7z"/>
	</g>
	<circle id="XMLID_22_" class="st9" cx="728.3" cy="447.8" r="47.7"/>
	<path id="XMLID_21_" class="st8" d="M742,402.1l-12.3,47.1l-28-40.9c-12.7,8.6-21,23.1-21,39.5c0,26.3,21.3,47.7,47.7,47.7
		s47.7-21.3,47.7-47.7C776,426.2,761.7,408,742,402.1z"/>
	<rect id="XMLID_20_" x="544.6" y="137" class="st8" width="220.2" height="17.4"/>
</g>
<g id="XMLID_71_">
	<g id="XMLID_72_">
		<path id="XMLID_18_" class="st10" d="M430.9,277.2c0,0,4.7,19.4,7.4,30.1c2.7,10.7,3.7,29.5-12.7,36.5l1.7,12.7
			c0,0-9.7,0-17.4,5.7l-2-15.1l-10.4-6.7c0,0-8.7-4-11-11.4c-2.3-7.4,1-11.4,4.4-12.7c3.3-1.3,11.7,0,16.1,14.1l7.7-2.7
			c0,0-4.4-12.4-5.4-19.7c-1-7.4,5-10.7,9.7-20.4S430.9,277.2,430.9,277.2z"/>
		<path id="XMLID_17_" class="st11" d="M419.2,251.1c-8,2.1-11.3,5.6-12.7,8.2c-2,3.8-4.9,7-8.5,9.3c-3.6,2.4-8.1,4.6-12.4,4.9
			c-9.3,0.7-21.3,12-18.3,26.1c3,14.1,12.3,28.9,24.1,36.7c0,0,0,0,0,0c-2.1-1.8-4.1-4.3-5-7.3c-2.3-7.4,1-11.4,4.4-12.7
			c3.3-1.3,11.7,0,16.1,14.1l7.7-2.7c0,0-4.4-12.4-5.4-19.7c-1-7.4,5-10.7,9.7-20.4c4.7-9.7,12-10.4,12-10.4s0.9,3.5,2,8.4
			c0,0,8.7-7.8,9.7-18.8C443.6,255.8,433.2,247.4,419.2,251.1z"/>
		<path id="XMLID_16_" class="st12" d="M409.8,362.2c0,0-19.1,11-19.1,38.8c0,27.8,3.3,51.5,0,70.6c-3.3,19.1-2.3,37.8-2.3,37.8
			s18.4,10.7,42.5,8.4c24.1-2.3,34.1-12,34.1-12s0.3-27.4,0-48.9c-0.3-21.4-6-60.9-6-60.9s21.8-17.1,36.5-23.1
			c14.7-6,17.1-32.1,23.1-46.5c6-14.4,9.4-35.8,9.4-35.8s-7-5.4-12.7-4.7c0,0-20.1,39.2-24.1,45.9c-4,6.7-4,13.7-24.4,18.1
			c-20.4,4.4-39.5,6.7-39.5,6.7S415.4,357.7,409.8,362.2z"/>
		<path id="XMLID_15_" class="st13" d="M390.7,471.7c3.3-19.1,0-42.8,0-70.6c0-9,2-16.2,4.7-21.9c0,0,0,0,0,0
			c-6.3,3.5-25.8,51.7-28.6,64.4c-2.1,9.7,14.3,30.5,22.3,40C389.5,479.7,390,475.7,390.7,471.7z"/>
		<path id="XMLID_14_" class="st13" d="M459,396c0,0-7.2,5.5-10.2,9.8l10.9-4.9L459,396z"/>
		<path id="XMLID_13_" class="st14" d="M388.5,509.5c-4.3,13.9-13.7,49.6-7.1,75c8.3,32.2,23.8,65.8,23.8,65.8s-7.7,21-10.5,55.9
			c-2.8,34.9-2.4,70.7-2.4,70.7s12.9,5.5,23.7,4.4c0,0,14.2-55.6,21.1-81.8c7-26.3,10.6-44,14.3-76.3
			c3.7-32.3,13.6-117.4,13.6-117.4s-10,9.7-34.1,12C407.8,520.1,390,510.4,388.5,509.5z"/>
		<path id="XMLID_12_" class="st13" d="M422.5,451.7c1.7,4.1,3.7,8,5.7,11.9c2.1,3.8,4.3,7.6,6.9,11.2c2.5,3.5,5.3,6.9,8.5,9.9
			c3.2,2.9,6.8,5.4,10.8,7.4c-4.3-1.2-8.3-3.4-11.8-6.2c-3.5-2.9-6.5-6.3-9.1-9.9c-2.6-3.7-4.8-7.6-6.6-11.7
			C424.9,460.3,423.4,456.1,422.5,451.7z"/>
		<path id="XMLID_11_" class="st6" d="M465,505.8c0,0-10,9.7-34.1,12c-24.1,2.3-42.5-8.4-42.5-8.4s-3.7,50.2,10.4,80.3
			c14.1,30.1,35.5,60.2,35.5,60.2s-3.7,22.1,0,56.9c3.7,34.8,10.7,70,10.7,70s13.7,3,24.1,0c0,0,3.7-57.2,5.7-84.3
			c2-27.1,2.3-45.2,0-77.6C472.4,582.4,465,505.8,465,505.8z"/>
		<path id="XMLID_10_" class="st13" d="M416,781.4c-10.8,1-23.7-4.4-23.7-4.4s-2.6,10.9,0,22.7c0,0,24.7-0.8,36.2,0
			c11.5,0.8,21.6,0,21.6,0s2.3-5-1.8-8.8C444.3,787.1,419.5,783.7,416,781.4z"/>
		<path id="XMLID_9_" class="st15" d="M500.6,790.9c-4-3.8-28-11.7-31.5-14c-10.4,3-24.1,0-24.1,0l0,0c-0.3,0-0.4,0-0.4,0
			s-2.6,10.9,0,22.7c0,0,24.7-0.8,36.2,0c11.5,0.8,21.6,0,21.6,0S504.6,794.6,500.6,790.9z"/>
		<path id="XMLID_8_" class="st10" d="M515.3,285.9l-1.9-10.4c0,0-4.8-12.6-3.8-15.3c1-2.8,4.6-1.8,5.7,1c1.1,2.8,3.2,5.3,3.2,5.3
			s0.4-11,0.6-16.3c0.3-5.3,3.5-6.8,5.3-6.1c1.8,0.8,1.9,13.3,1.9,13.3s4.4-17.1,8.1-16.3c3.9,0.9,0.3,18.2,0.3,18.2
			s5.9-8.3,7.9-8.1c2,0.2,3.3,1.8,3.1,3.9c-0.3,3.3-6.9,19.6-17.7,35.4C528,290.6,519.4,286.2,515.3,285.9z"/>
	</g>
</g>
<g id="XMLID_57_">
	<circle id="XMLID_7_" class="st1" cx="680" cy="39.3" r="23.1"/>
	<circle id="XMLID_6_" class="st1" cx="278.2" cy="246.5" r="17.5"/>
	<circle id="XMLID_5_" class="st1" cx="929.8" cy="280.8" r="12.5"/>
	<circle id="XMLID_4_" class="st1" cx="1051.1" cy="414.9" r="18.9"/>
</g>
<g id="XMLID_53_">
	<polygon id="XMLID_3_" class="st16" points="751.1,46.7 848,16.1 779.9,57.2 	"/>
	<polygon id="XMLID_2_" class="st7" points="777.2,80.1 779.9,57.2 848,16.1 	"/>
	<polygon id="XMLID_1_" class="st1" points="799.6,76 792.8,66 848,16.1 	"/>
</g>
</svg>
