<svg width="16" height="16" viewBox="0 0 16 16" fill="none" xmlns="http://www.w3.org/2000/svg">
<path d="M3.7998 5.9V1H12.1998V5.9" stroke="#454546" stroke-width="1.5" stroke-linecap="round" stroke-linejoin="round"/>
<path d="M3.8 12.2004H2.4C2.0287 12.2004 1.6726 12.0529 1.41005 11.7903C1.1475 11.5278 1 11.1717 1 10.8004V7.30039C1 6.92909 1.1475 6.57299 1.41005 6.31044C1.6726 6.04789 2.0287 5.90039 2.4 5.90039H13.6C13.9713 5.90039 14.3274 6.04789 14.5899 6.31044C14.8525 6.57299 15 6.92909 15 7.30039V10.8004C15 11.1717 14.8525 11.5278 14.5899 11.7903C14.3274 12.0529 13.9713 12.2004 13.6 12.2004H12.2" stroke="#454546" stroke-width="1.5" stroke-linecap="round" stroke-linejoin="round"/>
<path d="M12.1998 9.40039H3.7998V15.0004H12.1998V9.40039Z" stroke="#454546" stroke-width="1.5" stroke-linecap="round" stroke-linejoin="round"/>
</svg>
