<?xml version="1.0" encoding="utf-8"?>
<!-- Generator: Adobe Illustrator 16.0.0, SVG Export Plug-In . SVG Version: 6.00 Build 0)  -->
<!DOCTYPE svg PUBLIC "-//W3C//DTD SVG 1.1//EN" "http://www.w3.org/Graphics/SVG/1.1/DTD/svg11.dtd">
<svg version="1.1" id="Layer_1" xmlns="http://www.w3.org/2000/svg" xmlns:xlink="http://www.w3.org/1999/xlink" x="0px" y="0px"
	 width="70px" height="70px" viewBox="0 0 70 70" enable-background="new 0 0 70 70" xml:space="preserve">
<g>
	<defs>
		<filter id="Adobe_OpacityMaskFilter" filterUnits="userSpaceOnUse" x="0" y="0" width="70" height="70">
			<feColorMatrix  type="matrix" values="1 0 0 0 0  0 1 0 0 0  0 0 1 0 0  0 0 0 1 0"/>
		</filter>
	</defs>
	<mask maskUnits="userSpaceOnUse" x="0" y="0" width="70" height="70" id="icon-b">
		<g filter="url(#Adobe_OpacityMaskFilter)">
			<path id="icon-a" fill="#FFFFFF" d="M4,0h61c4,0,5,1,5,5v60c0,4-1,5-5,5H4c-3,0-4-1-4-5V5C0,1,1,0,4,0z"/>
		</g>
	</mask>
	<g mask="url(#icon-b)">
		<path fill="#9B108E" d="M0,0h70v70H0V0z"/>
		<path fill="#FFFFFF" fill-opacity="0.383" d="M4,1h61c2.667,0,4.333,0.667,5,2V0H0v3C0.667,1.667,2,1,4,1z"/>
		<path opacity="0.165" enable-background="new    " d="M26.375,11.5l9.25,1.125L54,18.25l4,6.11v19.558L33.423,69H4.006
			C2.003,69,0,68.854,0,64.911V38.064l12.348-14L26.375,11.5z"/>
		<path fill-opacity="0.383" d="M4,69h61c2.667,0,4.333-1,5-3v4H0v-4C0.667,68,2,69,4,69z"/>
		<g display="none">
			<g id="Layer_1_1_" display="inline">
				<path fill="#FFFFFF" d="M35,8.281C20.246,8.281,8.281,20.246,8.281,35S20.246,61.719,35,61.719S61.719,49.754,61.719,35
					S49.754,8.281,35,8.281z M35,19.297c4.301,0,7.793,3.492,7.793,7.793c0,4.301-3.492,7.793-7.793,7.793s-7.793-3.492-7.793-7.793
					C27.207,22.789,30.699,19.297,35,19.297z M47.598,46.156c0,2.496-2.039,4.535-4.535,4.535H26.938
					c-2.496,0-4.535-2.039-4.535-4.535v-9.609c0-2.496,2.039-4.535,4.535-4.535h0.375c1.582,2.578,4.43,4.3,7.676,4.3
					s6.094-1.729,7.676-4.3h0.375c2.496,0,4.535,2.039,4.535,4.535v9.609H47.598z"/>
			</g>
			<g id="Layer_2" display="inline">
				<g>
					<path fill="#FFFFFF" d="M47.984,8.398H15.289c-3.223,0-5.859,2.637-5.859,5.859v41.484c0,3.223,2.637,5.858,5.859,5.858h32.695
						c3.223,0,5.854-2.646,5.854-5.858V14.258C53.844,11.035,51.207,8.398,47.984,8.398z M31.637,19.297
						c4.3,0,7.792,3.492,7.792,7.793c0,4.301-3.492,7.793-7.792,7.793c-4.301,0-7.793-3.492-7.793-7.793
						C23.844,22.789,27.324,19.297,31.637,19.297z M44.234,46.156c0,2.496-2.039,4.535-4.535,4.535H23.574
						c-2.496,0-4.535-2.039-4.535-4.535v-9.609c0-2.496,2.039-4.535,4.535-4.535h0.375c1.582,2.578,4.43,4.3,7.676,4.3
						s6.094-1.729,7.676-4.3h0.375c2.496,0,4.535,2.039,4.535,4.535v9.609H44.234z"/>
					<g>
						<g>
							<g>
								<g>
									<rect id="SVGID_2_" x="53.375" y="18.242" fill="#FFFFFF" width="7.207" height="32.227"/>
								</g>
								<g>
									<g>
										<g>
											<g>
												<g>
													<g>
														<g>
															<g>
																<g>
																	<g>
																		<g>
																			<defs>
																				<rect id="SVGID_1_" x="53.375" y="18.242" width="7.207" height="32.227"/>
																			</defs>
																			<clipPath id="SVGID_3_">
																				<use xlink:href="#SVGID_1_"  overflow="visible"/>
																			</clipPath>
																			<g clip-path="url(#SVGID_3_)">
																				<path fill="#FFFFFF" d="M59.41,19.063h-8.438c-0.646,0-1.183,0.527-1.183,1.172v5.391
																					c0,0.645,0.522,1.172,1.183,1.172h8.438c0.645,0,1.172-0.527,1.172-1.172v-5.391
																					C60.582,19.59,60.055,19.063,59.41,19.063z"/>
																				<path fill="#FFFFFF" d="M56.188,42.266H47.75c-0.645,0-1.172,0.527-1.172,1.172v5.396
																					c0,0.646,0.527,1.172,1.172,1.172h8.438c0.646,0,1.172-0.521,1.172-1.172v-5.396
																					C57.359,42.793,56.832,42.266,56.188,42.266z"/>
																				<path fill="#FFFFFF" d="M58.18,30.664h-8.438c-0.645,0-1.172,0.527-1.172,1.172v5.391
																					c0,0.646,0.527,1.172,1.172,1.172h8.438c0.646,0,1.172-0.521,1.172-1.172v-5.391
																					C59.352,31.191,58.824,30.664,58.18,30.664z"/>
																			</g>
																		</g>
																	</g>
																</g>
															</g>
														</g>
													</g>
												</g>
											</g>
										</g>
									</g>
								</g>
							</g>
						</g>
					</g>
				</g>
			</g>
			<g id="Layer_3" display="inline">
				<g>
					<path fill="#FFFFFF" d="M60.664,17.539h-2.402c-0.375,2.578-2.59,4.57-5.273,4.57c-2.682,0-4.899-1.992-5.271-4.57h-25.43
						c-0.375,2.578-2.59,4.57-5.273,4.57s-4.91-1.992-5.273-4.57H9.336c-0.645,0-1.172,0.527-1.172,1.172v37.734
						c0,0.645,0.527,1.172,1.172,1.172h51.328c0.645,0,1.172-0.527,1.172-1.172V18.711C61.836,18.066,61.309,17.539,60.664,17.539z
						 M23.281,25.508c3.305,0,5.988,2.684,5.988,5.988c0,3.304-2.684,5.988-5.988,5.988c-3.304,0-5.988-2.688-5.988-5.988
						C17.293,28.192,19.977,25.508,23.281,25.508z M32.961,46.156c0,1.922-1.57,3.492-3.492,3.492H17.082
						c-1.922,0-3.492-1.57-3.492-3.492v-7.383c0-1.922,1.57-3.492,3.492-3.492h0.293c1.219,1.979,3.398,3.305,5.906,3.305
						c2.508,0,4.688-1.324,5.906-3.305h0.293c1.922,0,3.492,1.57,3.492,3.492v7.383H32.961z M56.328,45.781
						c0,0.645-0.527,1.172-1.172,1.172H36.992c-0.645,0-1.172-0.527-1.172-1.172v-0.82c0-0.645,0.527-1.172,1.172-1.172h18.164
						c0.645,0,1.172,0.527,1.172,1.172V45.781z M56.328,38.164c0,0.645-0.527,1.172-1.172,1.172H36.992
						c-0.645,0-1.172-0.527-1.172-1.172v-0.82c0-0.645,0.527-1.172,1.172-1.172h18.164c0.645,0,1.172,0.527,1.172,1.172V38.164z
						 M56.328,30.547c0,0.645-0.527,1.172-1.172,1.172H36.992c-0.645,0-1.172-0.527-1.172-1.172v-0.82
						c0-0.645,0.527-1.172,1.172-1.172h18.164c0.645,0,1.172,0.527,1.172,1.172V30.547z"/>
					<path fill="#FFFFFF" d="M17.012,12.383c-2.367,0-4.277,1.91-4.277,4.277c0,2.367,1.91,4.277,4.277,4.277
						c2.367,0,4.277-1.91,4.277-4.277C21.289,14.293,19.379,12.383,17.012,12.383z M17.012,19.414c-1.523,0-2.754-1.23-2.754-2.754
						c0-1.524,1.23-2.754,2.754-2.754c1.524,0,2.754,1.229,2.754,2.754C19.766,18.184,18.535,19.414,17.012,19.414z"/>
					<path fill="#FFFFFF" d="M53.105,12.383c-2.367,0-4.277,1.91-4.277,4.277c0,2.367,1.91,4.277,4.277,4.277
						s4.271-1.91,4.271-4.277C57.382,14.293,55.473,12.383,53.105,12.383z M53.105,19.414c-1.523,0-2.754-1.23-2.754-2.754
						c0-1.524,1.229-2.754,2.754-2.754c1.521,0,2.754,1.229,2.754,2.754C55.859,18.184,54.629,19.414,53.105,19.414z"/>
				</g>
			</g>
			<g id="Layer_4" display="inline">
				<g>
					<path fill="#FFFFFF" d="M46.883,26.41h-7.5c-0.48,0-0.879,0.398-0.879,0.879l0,0c0,0.48,0.398,0.879,0.879,0.879h7.5
						c0.48,0,0.879-0.398,0.879-0.879l0,0C47.762,26.797,47.363,26.41,46.883,26.41z"/>
					<path fill="#FFFFFF" d="M46.883,23.199h-7.5c-0.48,0-0.879,0.398-0.879,0.879s0.398,0.879,0.879,0.879h7.5
						c0.48,0,0.879-0.398,0.879-0.879S47.363,23.199,46.883,23.199z"/>
					<path fill="#FFFFFF" d="M35,8.281C20.246,8.281,8.281,20.246,8.281,35S20.246,61.719,35,61.719S61.719,49.754,61.719,35
						S49.754,8.281,35,8.281z M28.086,27.734c3.34,0,6.047,2.707,6.047,6.047c0,3.34-2.707,6.047-6.047,6.047
						s-6.047-2.707-6.047-6.047C22.039,30.441,24.746,27.734,28.086,27.734z M37.871,48.582c0,1.934-1.582,3.527-3.527,3.527H21.828
						c-1.934,0-3.527-1.582-3.527-3.527v-7.465c0-1.934,1.582-3.527,3.527-3.527h0.293c1.23,2.004,3.434,3.34,5.965,3.34
						c2.531,0,4.734-1.336,5.965-3.34h0.293c1.933,0,3.527,1.582,3.527,3.527V48.582z M52.508,26.527c0,2.098-1.488,3.82-3.305,3.82
						h-7.277l-7.02,2.777l2.098-2.789h0.047c-1.816,0-3.305-1.723-3.305-3.82v-4.84c0-2.098,1.488-3.82,3.305-3.82h12.152
						c1.816,0,3.305,1.723,3.305,3.82V26.527z"/>
					<path fill="#FFFFFF" d="M46.883,20h-7.5c-0.48,0-0.879,0.398-0.879,0.879s0.398,0.879,0.879,0.879h7.5
						c0.48,0,0.879-0.398,0.879-0.879S47.363,20,46.883,20z"/>
				</g>
			</g>
			<g id="Layer_5" display="inline">
				<path fill="#FFFFFF" d="M34.883,8.164c-14.754,0-26.719,11.965-26.719,26.719s11.965,26.719,26.719,26.719
					s26.719-11.965,26.719-26.719S49.637,8.164,34.883,8.164z M29.445,22.203c3.984,0,7.219,3.234,7.219,7.219
					c0,3.985-3.234,7.219-7.219,7.219c-3.985,0-7.219-3.229-7.219-7.219C22.226,25.437,25.461,22.203,29.445,22.203z M41.105,47.082
					c0,2.309-1.896,4.207-4.207,4.207H21.98c-2.309,0-4.207-1.887-4.207-4.207v-8.895c0-2.313,1.887-4.208,4.207-4.208h0.352
					c1.465,2.391,4.102,3.984,7.113,3.984c3.011,0,5.648-1.594,7.114-3.984h0.354c2.312,0,4.207,1.887,4.207,4.208v8.895H41.105z
					 M49.344,29.129v5.988h-2.801v-5.988h-5.988v-2.801h5.988v-5.977h2.801v5.988h5.988v2.801h-5.988V29.129z"/>
			</g>
			<g id="Layer_6" display="inline">
				<path fill="#FFFFFF" d="M35,8.281C20.246,8.281,8.281,20.246,8.281,35S20.246,61.719,35,61.719S61.719,49.754,61.719,35
					S49.754,8.281,35,8.281z M29.563,22.32c3.984,0,7.219,3.234,7.219,7.219s-3.234,7.219-7.219,7.219s-7.219-3.234-7.219-7.219
					S25.578,22.32,29.563,22.32z M41.223,47.199c0,2.309-1.887,4.207-4.207,4.207H22.098c-2.309,0-4.207-1.887-4.207-4.207v-8.895
					c0-2.313,1.887-4.208,4.207-4.208h0.352c1.465,2.39,4.102,3.984,7.113,3.984s5.648-1.596,7.113-3.984h0.352
					c2.313,0,4.207,1.886,4.207,4.208v8.895H41.223z M40.742,29.258v-2.813h14.297v2.813H40.742z"/>
			</g>
			<g id="Layer_7" display="inline">
				<path fill="#FFFFFF" d="M35,8.281C20.246,8.281,8.281,20.246,8.281,35S20.246,61.719,35,61.719S61.719,49.754,61.719,35
					S49.754,8.281,35,8.281z M29.563,22.32c3.984,0,7.219,3.234,7.219,7.219s-3.234,7.219-7.219,7.219s-7.219-3.234-7.219-7.219
					S25.578,22.32,29.563,22.32z M41.223,47.199c0,2.309-1.887,4.207-4.207,4.207H22.098c-2.309,0-4.207-1.887-4.207-4.207v-8.895
					c0-2.313,1.887-4.208,4.207-4.208h0.352c1.465,2.39,4.102,3.984,7.113,3.984s5.648-1.596,7.113-3.984h0.352
					c2.313,0,4.207,1.886,4.207,4.208v8.895H41.223z M48.219,33.031l-1.992,1.992l-1.992-1.992l-4.805-4.805l1.992-1.992
					l4.805,4.805l8.121-8.121l1.992,1.992L48.219,33.031z"/>
			</g>
			<g id="Layer_8" display="inline">
				<g>
					<path fill="#FFFFFF" d="M35,8.281C20.246,8.281,8.281,20.246,8.281,35S20.246,61.719,35,61.719S61.719,49.754,61.719,35
						S49.754,8.281,35,8.281z M44.926,17.07c3.023,0,5.473,2.449,5.473,5.473s-2.438,5.473-5.473,5.473
						c-3.023,0-5.473-2.449-5.473-5.473S41.902,17.07,44.926,17.07z M40.461,36.605c0,3.021-2.449,5.473-5.473,5.473
						s-5.473-2.449-5.473-5.473c0-3.024,2.449-5.479,5.473-5.479S40.461,33.582,40.461,36.605z M25.074,17.07
						c3.023,0,5.473,2.449,5.473,5.473s-2.449,5.473-5.473,5.473c-3.024,0-5.473-2.449-5.473-5.473S22.051,17.07,25.074,17.07z
						 M16.238,35.914v-6.738c0-1.746,1.43-3.188,3.188-3.188h0.27c1.113,1.816,3.105,3.023,5.391,3.023s4.277-1.207,5.391-3.023
						h0.27c1.746,0,3.188,1.43,3.188,3.188v1.289c-2.953,0.504-5.203,3.07-5.203,6.141c0,0.896,0.188,1.734,0.527,2.496h-9.844
						C17.668,39.102,16.238,37.672,16.238,35.914z M43.836,49.742c0,1.746-1.43,3.188-3.188,3.188H29.34
						c-1.746,0-3.188-1.43-3.188-3.188v-6.738c0-1.746,1.43-3.188,3.188-3.188h0.27c1.113,1.813,3.105,3.021,5.391,3.021
						s4.276-1.207,5.392-3.021h0.271c1.746,0,3.188,1.43,3.188,3.188v6.738H43.836z M53.762,35.914c0,1.746-1.43,3.188-3.188,3.188
						h-9.82c0.34-0.762,0.527-1.604,0.527-2.496c0-3.082-2.25-5.637-5.203-6.141v-1.289c0-1.746,1.43-3.188,3.188-3.188h0.271
						c1.111,1.816,3.104,3.023,5.391,3.023s4.277-1.207,5.393-3.023h0.271c1.746,0,3.188,1.43,3.188,3.188v6.738H53.762z"/>
				</g>
			</g>
		</g>
	</g>
</g>
<circle fill="#FFFFFF" cx="35" cy="35" r="26.5"/>
<g>
	<g>
		<g>
			<g>
				<rect x="35.447" y="46.362" fill="#0C0A0C" width="0.1" height="2.326"/>
			</g>
			<g>
				<rect x="35.447" y="19.009" fill="#0C0A0C" width="0.1" height="23.152"/>
			</g>
			<g>
				<path fill="#0C0A0C" d="M37.451,51.002h-1.954v-0.1h1.94l4.936-2.844l2.131-3.595l2.602-13.679l-1.298-7.034l-2.811-2.858
					l-3.081-1.834h-4.419v-0.099h4.433c0.009,0,0.018,0.002,0.025,0.007l3.1,1.844c0.003,0.002,0.007,0.005,0.009,0.008l2.826,2.874
					c0.007,0.007,0.011,0.016,0.013,0.025l1.303,7.059c0.001,0.006,0.001,0.013,0,0.018l-2.604,13.698
					c-0.001,0.005-0.004,0.011-0.007,0.016l-2.143,3.613c-0.004,0.007-0.011,0.014-0.018,0.018l-4.958,2.856
					C37.469,51,37.46,51.002,37.451,51.002z"/>
			</g>
			<g>
				<path fill="#0C0A0C" d="M41.61,35.814c0,0-0.001,0-0.002,0l-2.122-0.105c-0.007,0-0.014-0.002-0.019-0.004l-1.387-0.652
					c-0.017-0.008-0.028-0.025-0.028-0.044c-0.001-0.02,0.011-0.037,0.026-0.045l1.45-0.735c0.007-0.004,0.015-0.006,0.022-0.006
					h2.185c0.012,0,0.022,0.004,0.032,0.012l1.008,0.84c0.013,0.011,0.02,0.027,0.018,0.043c-0.001,0.016-0.01,0.031-0.024,0.038
					l-1.135,0.652C41.627,35.812,41.619,35.814,41.61,35.814z M39.5,35.609l2.098,0.104l1.061-0.607l-0.939-0.783h-2.155
					l-1.348,0.684L39.5,35.609z"/>
			</g>
			<g>
				<path fill="#0C0A0C" d="M37.683,40.205c-0.011,0-0.021-0.003-0.029-0.009l-1.154-0.777c-0.014-0.009-0.021-0.024-0.022-0.041
					l-0.104-4.579c-0.002-0.012,0.003-0.023,0.01-0.032l1.933-2.374c0.007-0.008,0.018-0.015,0.027-0.017l4.16-0.945
					c0.014-0.003,0.029,0,0.041,0.009l2.197,1.669l0.516-5.009l-0.707-3.268l-4.019-2.082l-1.771,0.323
					c-0.005,0.001-0.01,0.001-0.014,0l-3.254-0.326l0.01-0.099l3.246,0.325l1.782-0.324c0.011-0.002,0.021,0,0.032,0.004
					l4.054,2.101c0.014,0.007,0.022,0.02,0.025,0.034l0.715,3.298c0,0.006,0.001,0.011,0,0.016l-0.524,5.105
					c-0.003,0.018-0.013,0.033-0.03,0.041c-0.017,0.007-0.035,0.005-0.05-0.006l-2.25-1.708l-4.12,0.937l-1.909,2.347l0.104,4.535
					l1.07,0.72l0.404-2.309l-0.648-2.731c-0.005-0.021,0.004-0.042,0.021-0.054l2.037-1.334c0.015-0.01,0.033-0.01,0.049-0.003
					s0.027,0.022,0.027,0.04l0.064,0.587l-0.1,0.01l-0.055-0.506l-1.94,1.27l0.645,2.707c0.001,0.007,0.001,0.014,0,0.021
					l-0.42,2.395c-0.004,0.017-0.015,0.03-0.03,0.037C37.695,40.203,37.688,40.205,37.683,40.205z"/>
			</g>
			<g>
				<path fill="#0C0A0C" d="M40.569,22.738l-0.06-0.08l2.409-1.785l-4.824-1.465h-2.598v-0.1h2.604c0.006,0,0.01,0,0.015,0.002
					l4.927,1.496c0.019,0.005,0.031,0.02,0.034,0.039c0.004,0.019-0.004,0.037-0.02,0.048L40.569,22.738z"/>
			</g>
			<g>
				<path fill="#0C0A0C" d="M40.539,22.748c-0.005,0-0.011-0.001-0.016-0.002l-5.041-1.638c-0.019-0.006-0.032-0.022-0.035-0.041
					c-0.002-0.02,0.006-0.038,0.021-0.048l2.606-1.702c0.005-0.003,0.011-0.006,0.018-0.007l1.827-0.349l0.02,0.099l-1.751,0.333
					l2.391,3.276c0.014,0.018,0.014,0.042,0,0.059C40.57,22.74,40.555,22.748,40.539,22.748z M35.611,21.044l4.797,1.559
					l-2.318-3.178L35.611,21.044z"/>
			</g>
			<g>
				<path fill="#0C0A0C" d="M41.786,34.281l-0.099-0.018l0.105-0.589c0.002-0.006,0.004-0.013,0.007-0.018l0.89-1.376l-0.224-0.788
					c-0.002-0.006-0.003-0.011-0.003-0.018l0.283-3.481l-0.336-2.707l0.099-0.012l0.337,2.711c0,0.003,0,0.007,0,0.01l-0.282,3.478
					l0.228,0.8c0.005,0.014,0.002,0.029-0.006,0.041l-0.896,1.388L41.786,34.281z"/>
			</g>
			<g>
				<path fill="#0C0A0C" d="M42.745,35.162c-0.018,0-0.033-0.007-0.042-0.022l-0.889-1.406h-2.307l-1.371,1.31
					c-0.009,0.009-0.021,0.014-0.034,0.014l-0.65,0.01c-0.016,0-0.037-0.009-0.045-0.025c-0.01-0.018-0.008-0.038,0.004-0.053
					l1.48-2.038c0.008-0.01,0.019-0.017,0.031-0.02l3.813-0.693c0.019-0.004,0.035,0.002,0.047,0.016l1.922,2.195
					c0.012,0.013,0.015,0.03,0.011,0.046c-0.004,0.016-0.017,0.03-0.032,0.035l-1.922,0.63
					C42.755,35.162,42.75,35.162,42.745,35.162z M39.488,33.635h2.354c0.017,0,0.033,0.009,0.041,0.023l0.884,1.395l1.813-0.594
					l-1.854-2.117l-3.766,0.685l-1.41,1.94l0.532-0.009l1.372-1.31C39.464,33.64,39.476,33.635,39.488,33.635z"/>
			</g>
			<g>
				<path fill="#0C0A0C" d="M37.451,35.067c-0.003,0-0.008,0-0.01,0l-1.025-0.22h-0.919v-0.1h0.925c0.003,0,0.006,0,0.01,0.001
					l0.987,0.211l0.888-2.552c0.006-0.016,0.02-0.028,0.036-0.032c0.016-0.004,0.034,0,0.046,0.012l0.577,0.557l-0.068,0.071
					l-0.521-0.502l-0.878,2.521C37.491,35.055,37.472,35.067,37.451,35.067z"/>
			</g>
			<g>
				<rect x="39.418" y="35.659" fill="#0C0A0C" width="0.099" height="1.056"/>
			</g>
			<g>
				
					<rect x="41.453" y="36.19" transform="matrix(0.8018 0.5975 -0.5975 0.8018 30.027 -18.0642)" fill="#0C0A0C" width="1.592" height="0.099"/>
			</g>
			<g>
				
					<rect x="41.143" y="44.412" transform="matrix(0.9941 0.1083 -0.1083 0.9941 5.1879 -4.1914)" fill="#0C0A0C" width="0.099" height="2.535"/>
			</g>
			<g>
				<path fill="#0C0A0C" d="M36.517,42.211h-1.02V42.11h1.02c0.052-0.011,0.87-0.318,1.466-0.545l-1.12-0.599l-0.712,0.367
					c-0.008,0.003-0.016,0.005-0.023,0.005h-0.63v-0.101h0.618l0.725-0.372c0.015-0.007,0.032-0.007,0.046,0l1.239,0.662
					c0.019,0.01,0.028,0.027,0.027,0.048c-0.001,0.02-0.015,0.036-0.032,0.043C37.09,42.012,36.55,42.211,36.517,42.211z"/>
			</g>
			<g>
				<path fill="#0C0A0C" d="M36.48,42.195l-0.295-0.315c-0.006-0.007-0.012-0.017-0.014-0.026l-0.094-0.557l0.099-0.016l0.093,0.542
					l0.283,0.304L36.48,42.195z"/>
			</g>
			<g>
				
					<rect x="36.537" y="41.191" transform="matrix(0.0162 0.9999 -0.9999 0.0162 77.5059 3.7089)" fill="#0C0A0C" width="0.662" height="0.101"/>
			</g>
			<g>
				<path fill="#0C0A0C" d="M36.222,41.896h-0.725v-0.101h0.715l0.643-0.269c0.006-0.002,0.012-0.003,0.019-0.003h1.162
					l-0.401-1.355l-1.167-5.339l0.098-0.021l1.166,5.337l0.42,1.414c0.004,0.015,0.002,0.031-0.008,0.044
					c-0.011,0.013-0.024,0.02-0.041,0.02h-1.218l-0.643,0.27C36.235,41.895,36.229,41.896,36.222,41.896z"/>
			</g>
			<g>
				<path fill="#0C0A0C" d="M42.409,48.146c-0.013,0-0.023-0.004-0.033-0.013l-1.35-1.155c-0.007-0.006-0.012-0.013-0.015-0.021
					l-1.397-3.958l-1.545-1.388l0.066-0.075l1.555,1.397c0.006,0.006,0.011,0.013,0.014,0.021l1.397,3.958l1.212,1.037l-1.034-3.515
					c-0.005-0.015-0.002-0.029,0.006-0.042l3.133-4.758l0.193-5.001l-1.687,2.113c-0.009,0.012-0.023,0.019-0.038,0.019h-3.439
					c-0.013,0-0.023-0.005-0.033-0.012l-1.995-1.696l0.064-0.077l1.981,1.686h3.397l1.766-2.213
					c0.013-0.017,0.036-0.023,0.057-0.016c0.02,0.007,0.033,0.028,0.032,0.049l-0.199,5.167c-0.001,0.009-0.004,0.018-0.009,0.025
					l-3.128,4.749l1.075,3.654c0.006,0.021-0.002,0.045-0.021,0.056C42.427,48.143,42.418,48.146,42.409,48.146z"/>
			</g>
			<g>
				<path fill="#0C0A0C" d="M35.503,47.063l-0.011-0.1l1.938-0.219l1.316-1.181l-1.146,0.59c-0.005,0.003-0.012,0.005-0.017,0.005
					l-2.079,0.253l-0.012-0.1l2.071-0.251l1.483-0.763c0.022-0.012,0.05-0.005,0.063,0.017c0.015,0.021,0.011,0.049-0.007,0.064
					l-1.618,1.45c-0.008,0.007-0.018,0.011-0.028,0.013L35.503,47.063z"/>
			</g>
			<g>
				
					<rect x="37.465" y="46.104" transform="matrix(0.9842 0.1772 -0.1772 0.9842 8.8223 -5.911)" fill="#0C0A0C" width="0.099" height="0.695"/>
			</g>
			<g>
				<path fill="#0C0A0C" d="M40.581,45.556l-1.515-0.162h-3.569v-0.1h3.351l-1.23-0.583l-1.484-0.032l-0.623,0.156
					c-0.023,0.006-0.046-0.005-0.057-0.026c-0.011-0.021-0.005-0.046,0.013-0.061l0.536-0.432c0.008-0.007,0.02-0.01,0.031-0.01
					h1.418c0.009,0,0.019,0.003,0.026,0.007l1.607,0.982l1.507,0.161L40.581,45.556z M36.127,44.58c0,0,0,0,0.002,0l1.502,0.03
					c0.007,0,0.014,0.002,0.021,0.006l0.582,0.276l-0.797-0.487h-1.386l-0.346,0.278l0.41-0.103
					C36.119,44.58,36.123,44.58,36.127,44.58z"/>
			</g>
			<g>
				
					<rect x="34.894" y="43.209" transform="matrix(0.0355 0.9994 -0.9994 0.0355 77.9451 5.7506)" fill="#0C0A0C" width="2.198" height="0.1"/>
			</g>
			<g>
				<rect x="43.815" y="44.454" fill="#0C0A0C" width="0.737" height="0.099"/>
			</g>
			<g>
				<path fill="#0C0A0C" d="M45.143,41.486l-0.024-0.096l0.569-0.145l1.672-3.145l0.418-3.379l-0.543-1.167l-0.617,0.192
					l-0.029-0.095l0.659-0.205c0.022-0.008,0.049,0.004,0.06,0.027l0.566,1.219c0.005,0.008,0.006,0.017,0.005,0.026l-0.42,3.403
					c-0.001,0.006-0.003,0.012-0.005,0.018l-1.688,3.171c-0.007,0.014-0.02,0.022-0.033,0.025L45.143,41.486z"/>
			</g>
			<g>
				<path fill="#0C0A0C" d="M46.038,39.994c-0.002,0-0.004,0-0.006-0.001l-0.61-0.064c-0.022-0.002-0.04-0.019-0.044-0.04
					c-0.004-0.022,0.007-0.044,0.026-0.055l0.638-0.317l0.273-1.177l-0.474-0.849c-0.008-0.014-0.009-0.03-0.002-0.045l1.271-2.816
					c0.01-0.021,0.031-0.032,0.055-0.028c0.022,0.004,0.039,0.022,0.041,0.046l0.252,3.466l-0.1,0.007l-0.2-2.763l-0.204,2.979
					c0,0.007-0.003,0.014-0.007,0.02l-0.865,1.613C46.073,39.985,46.056,39.994,46.038,39.994z M45.601,39.848l0.409,0.044
					l0.846-1.573l0.231-3.395l-1.146,2.54l0.471,0.844c0.006,0.012,0.008,0.023,0.005,0.036l-0.283,1.218
					c-0.004,0.015-0.014,0.027-0.026,0.034L45.601,39.848z"/>
			</g>
			<g>
				<path fill="#0C0A0C" d="M47.824,34.764l-0.673-0.063c-0.027-0.003-0.048-0.027-0.045-0.055l0.104-1.156l0.101,0.01l-0.101,1.105
					l0.622,0.059L47.824,34.764z"/>
			</g>
			<g>
				<path fill="#0C0A0C" d="M37.5,50.963l-0.098-0.021l0.295-1.41l-0.664-0.794h-1.536v-0.1h1.56c0.016,0,0.029,0.007,0.039,0.019
					l0.692,0.829c0.01,0.012,0.014,0.027,0.012,0.042L37.5,50.963z"/>
			</g>
			<g>
				<path fill="#0C0A0C" d="M37.75,49.568c-0.012,0-0.023-0.004-0.032-0.013c-0.016-0.013-0.021-0.033-0.015-0.052l1.318-4.176
					l0.095,0.03l-1.285,4.07l2.716-1.202l0.465-1.304l0.094,0.033l-0.473,1.325c-0.004,0.012-0.014,0.022-0.025,0.027l-2.837,1.256
					C37.764,49.567,37.757,49.568,37.75,49.568z"/>
			</g>
			<g>
				
					<rect x="37.683" y="47.137" transform="matrix(0.6771 0.7359 -0.7359 0.6771 47.5545 -12.2481)" fill="#0C0A0C" width="0.1" height="1.846"/>
			</g>
			<g>
				<path fill="#0C0A0C" d="M47.137,30.831l-0.925-0.399c-0.013-0.005-0.021-0.015-0.026-0.027l-0.924-2.29l0.092-0.037l0.917,2.271
					l0.905,0.391L47.137,30.831z"/>
			</g>
			<g>
				<path fill="#0C0A0C" d="M45.936,37.473l-0.1-0.012l0.418-3.745l-0.071-3.329l-0.372-6.557l-1.186,1.006l-0.063-0.076l1.26-1.072
					c0.015-0.012,0.034-0.015,0.052-0.008s0.029,0.024,0.03,0.043l0.378,6.659l0.072,3.337L45.936,37.473z"/>
			</g>
			<g>
				<path fill="#0C0A0C" d="M40.591,48.313l-0.009-0.099l1.791-0.166l1.396-3.542l1.045-3.761l-0.373-1.019l-3.087,2.04
					c-0.015,0.009-0.032,0.011-0.047,0.004l-3.646-1.57l0.039-0.091l3.62,1.56l3.119-2.06c0.012-0.009,0.028-0.012,0.043-0.006
					c0.014,0.005,0.025,0.016,0.03,0.029l0.399,1.093c0.004,0.01,0.004,0.021,0.002,0.03l-1.051,3.781l-1.409,3.576
					c-0.008,0.018-0.023,0.029-0.042,0.032L40.591,48.313z"/>
			</g>
			<g>
				<path fill="#0C0A0C" d="M44.913,40.76l-0.094-0.033l0.852-2.401l-0.308-3.67l-0.104-6.511l-2.465-0.104l-3.65-0.871
					l-3.641,0.409l-0.011-0.099l3.65-0.41c0.006,0,0.011,0,0.017,0.001l3.649,0.872l2.502,0.104
					c0.026,0.001,0.047,0.022,0.047,0.049l0.106,6.554l0.308,3.679c0.001,0.007,0,0.014-0.003,0.021L44.913,40.76z"/>
			</g>
			<g>
				<polygon fill="#0C0A0C" points="38.403,32.431 38.306,32.417 39.097,27.118 38.701,23.028 38.8,23.019 39.196,27.115 
					39.196,27.127 				"/>
			</g>
			<g>
				<polygon fill="#0C0A0C" points="45.272,28.132 42.425,25.316 40.499,22.727 40.578,22.668 42.499,25.251 45.343,28.062 				"/>
			</g>
			<g>
				<path fill="#0C0A0C" d="M41.377,44.419h-0.101v-2.595l-1.59,1.186l-2.209,1.388l-0.053-0.084l2.205-1.386l1.667-1.242
					c0.015-0.012,0.035-0.014,0.052-0.005c0.018,0.008,0.028,0.026,0.028,0.044V44.419z"/>
			</g>
			<g>
				<path fill="#0C0A0C" d="M44.468,39.7c-0.005,0-0.009-0.001-0.013-0.001l-2.037-0.505l-4.331-1.387l0.03-0.095l4.328,1.386
					l2.006,0.497l1.234-1.298l0.071,0.067l-1.253,1.319C44.494,39.694,44.48,39.7,44.468,39.7z"/>
			</g>
			<g>
				<polygon fill="#0C0A0C" points="41.373,41.744 41.281,41.706 42.381,39.132 42.837,36.705 42.936,36.724 42.479,39.155 
					42.476,39.165 				"/>
			</g>
			<g>
				<path fill="#0C0A0C" d="M40.356,35.71c-0.479,0-0.868-0.39-0.868-0.868c0-0.228,0.087-0.443,0.246-0.604l0.07,0.069
					c-0.14,0.144-0.216,0.334-0.216,0.535c0,0.424,0.345,0.768,0.768,0.768c0.424,0,0.769-0.344,0.769-0.768
					c0-0.201-0.078-0.391-0.217-0.535l0.071-0.069c0.157,0.161,0.244,0.376,0.244,0.604C41.224,35.32,40.835,35.71,40.356,35.71z"/>
			</g>
			<g>
				<circle fill="#0C0A0C" cx="40.356" cy="34.841" r="0.347"/>
				<path fill="#0C0A0C" d="M40.357,35.237c-0.219,0-0.396-0.178-0.396-0.396s0.178-0.397,0.396-0.397
					c0.218,0,0.396,0.178,0.396,0.397S40.575,35.237,40.357,35.237z M40.357,34.544c-0.164,0-0.298,0.134-0.298,0.297
					s0.134,0.297,0.298,0.297c0.163,0,0.296-0.134,0.296-0.297S40.521,34.544,40.357,34.544z"/>
			</g>
			<g>
				<path fill="#0C0A0C" d="M45.413,34.701c-0.005,0-0.008-0.001-0.012-0.002l-0.746-0.168c-0.024-0.006-0.04-0.028-0.038-0.053
					l0.116-1.282l0.099,0.009l-0.112,1.237l0.677,0.154l0.87-0.91l0.072,0.069l-0.891,0.93
					C45.438,34.695,45.426,34.701,45.413,34.701z"/>
			</g>
		</g>
		<g>
			<g>
				<path fill="#0C0A0C" d="M35.497,51.002h-1.953c-0.009,0-0.018-0.002-0.025-0.007l-4.958-2.856
					c-0.007-0.004-0.014-0.011-0.018-0.018L26.4,44.508c-0.003-0.005-0.005-0.011-0.006-0.016l-2.605-13.698
					c0-0.005,0-0.012,0-0.018l1.303-7.059c0.001-0.009,0.006-0.019,0.013-0.025l2.826-2.874c0.003-0.003,0.006-0.005,0.01-0.008
					l3.099-1.844c0.007-0.005,0.016-0.007,0.025-0.007h4.432v0.099h-4.419l-3.081,1.834l-2.81,2.858l-1.298,7.034l2.602,13.679
					l2.132,3.595l4.935,2.844h1.94V51.002z"/>
			</g>
			<g>
				<path fill="#0C0A0C" d="M29.384,35.814c-0.009,0-0.018-0.003-0.025-0.007l-1.134-0.652c-0.014-0.007-0.024-0.022-0.025-0.038
					c-0.001-0.016,0.005-0.032,0.018-0.043l1.008-0.84c0.009-0.008,0.021-0.012,0.032-0.012h2.185c0.008,0,0.016,0.001,0.023,0.006
					l1.449,0.735c0.017,0.008,0.028,0.025,0.027,0.045c0,0.019-0.011,0.036-0.029,0.044l-1.386,0.652
					c-0.006,0.002-0.013,0.004-0.02,0.004l-2.121,0.105C29.386,35.814,29.385,35.814,29.384,35.814z M28.336,35.105l1.06,0.607
					l2.098-0.104l1.285-0.604l-1.348-0.684h-2.154L28.336,35.105z"/>
			</g>
			<g>
				<path fill="#0C0A0C" d="M33.313,40.205c-0.007,0-0.014-0.002-0.021-0.005c-0.015-0.007-0.026-0.021-0.029-0.037l-0.42-2.395
					c-0.001-0.007-0.001-0.014,0-0.021l0.643-2.707l-1.94-1.27l-0.055,0.506l-0.099-0.01l0.063-0.587
					c0.002-0.018,0.013-0.033,0.028-0.04c0.015-0.007,0.034-0.007,0.048,0.003l2.038,1.334c0.018,0.012,0.027,0.032,0.022,0.054
					l-0.649,2.731l0.405,2.309l1.07-0.72l0.104-4.535l-1.911-2.347l-4.12-0.937l-2.25,1.708c-0.015,0.011-0.033,0.013-0.05,0.006
					c-0.017-0.008-0.028-0.022-0.03-0.041l-0.525-5.105c0-0.005,0-0.01,0.001-0.016l0.714-3.298
					c0.003-0.014,0.013-0.027,0.026-0.034l4.054-2.101c0.01-0.005,0.021-0.007,0.032-0.004l1.782,0.324l3.246-0.325l0.01,0.099
					l-3.253,0.326c-0.005,0-0.009,0-0.014,0l-1.771-0.323l-4.019,2.082l-0.708,3.268l0.515,5.009l2.198-1.669
					c0.012-0.009,0.027-0.012,0.041-0.009l4.16,0.945c0.011,0.002,0.021,0.009,0.027,0.017l1.932,2.374
					c0.008,0.009,0.012,0.021,0.012,0.032l-0.105,4.579c-0.001,0.017-0.009,0.032-0.022,0.041l-1.155,0.777
					C33.332,40.202,33.323,40.205,33.313,40.205z"/>
			</g>
			<g>
				<path fill="#0C0A0C" d="M30.426,22.738l-2.489-1.844c-0.015-0.011-0.023-0.03-0.02-0.048c0.002-0.019,0.017-0.034,0.035-0.039
					l4.926-1.496c0.005-0.002,0.01-0.002,0.014-0.002h2.605v0.1H32.9l-4.825,1.465l2.41,1.785L30.426,22.738z"/>
			</g>
			<g>
				<path fill="#0C0A0C" d="M30.455,22.748c-0.015,0-0.03-0.007-0.04-0.021c-0.013-0.017-0.013-0.041,0-0.059l2.39-3.276
					l-1.75-0.333l0.019-0.099l1.828,0.349c0.006,0.001,0.012,0.004,0.018,0.007l2.604,1.702c0.017,0.01,0.024,0.029,0.022,0.048
					c-0.002,0.019-0.016,0.035-0.033,0.041l-5.042,1.638C30.466,22.747,30.461,22.748,30.455,22.748z M32.905,19.425l-2.318,3.178
					l4.796-1.559L32.905,19.425z"/>
			</g>
			<g>
				<path fill="#0C0A0C" d="M29.209,34.281l-0.104-0.579l-0.897-1.388c-0.007-0.012-0.01-0.027-0.006-0.041l0.229-0.8l-0.282-3.478
					c0-0.003,0-0.007,0-0.01l0.336-2.711l0.099,0.012l-0.336,2.707l0.283,3.481c0,0.006,0,0.012-0.002,0.018l-0.225,0.788
					l0.889,1.376c0.004,0.005,0.007,0.012,0.008,0.018l0.105,0.589L29.209,34.281z"/>
			</g>
			<g>
				<path fill="#0C0A0C" d="M28.25,35.162c-0.005,0-0.011,0-0.016-0.002l-1.922-0.63c-0.016-0.005-0.028-0.019-0.032-0.035
					c-0.004-0.016,0-0.033,0.01-0.046l1.922-2.195c0.012-0.014,0.029-0.02,0.047-0.016l3.813,0.693
					c0.013,0.002,0.024,0.009,0.032,0.02l1.481,2.038c0.011,0.015,0.012,0.035,0.004,0.053c-0.009,0.017-0.027,0.025-0.045,0.025
					l-0.651-0.01c-0.013,0-0.024-0.005-0.034-0.014l-1.372-1.31H29.18l-0.888,1.406C28.282,35.155,28.267,35.162,28.25,35.162z
					 M26.415,34.458l1.813,0.594l0.883-1.395c0.009-0.015,0.024-0.023,0.042-0.023h2.353c0.013,0,0.025,0.005,0.034,0.014
					l1.372,1.31l0.532,0.009l-1.411-1.94l-3.766-0.685L26.415,34.458z"/>
			</g>
			<g>
				<path fill="#0C0A0C" d="M33.544,35.067c-0.021,0-0.041-0.013-0.047-0.032l-0.877-2.521l-0.522,0.502l-0.069-0.071l0.577-0.557
					c0.013-0.012,0.03-0.016,0.047-0.012c0.016,0.003,0.03,0.016,0.035,0.032l0.889,2.552l0.986-0.211
					c0.004-0.001,0.007-0.001,0.011-0.001h0.924v0.1h-0.919l-1.024,0.22C33.551,35.067,33.547,35.067,33.544,35.067z"/>
			</g>
			<g>
				
					<rect x="30.999" y="36.137" transform="matrix(0.0397 0.9992 -0.9992 0.0397 66.4322 3.2468)" fill="#0C0A0C" width="1.056" height="0.1"/>
			</g>
			<g>
				<rect x="28.696" y="35.444" transform="matrix(0.6 0.8 -0.8 0.6 40.4903 -8.5012)" fill="#0C0A0C" width="0.1" height="1.591"/>
			</g>
			<g>
				
					<rect x="28.534" y="45.63" transform="matrix(0.1058 0.9944 -0.9944 0.1058 72.0735 11.2141)" fill="#0C0A0C" width="2.535" height="0.1"/>
			</g>
			<g>
				<path fill="#0C0A0C" d="M35.497,42.211h-1.019c-0.035,0-0.574-0.199-1.604-0.592c-0.018-0.007-0.031-0.023-0.032-0.043
					c-0.001-0.021,0.009-0.038,0.026-0.048l1.24-0.662c0.015-0.007,0.032-0.007,0.046,0l0.724,0.372h0.618v0.101h-0.63
					c-0.007,0-0.015-0.002-0.022-0.005l-0.712-0.367l-1.12,0.599c0.595,0.227,1.413,0.534,1.473,0.546l1.011-0.001V42.211z"/>
			</g>
			<g>
				<path fill="#0C0A0C" d="M34.515,42.195l-0.073-0.068l0.284-0.304l0.092-0.542l0.098,0.016l-0.094,0.557
					c-0.002,0.01-0.007,0.02-0.013,0.026L34.515,42.195z"/>
			</g>
			<g>
				<rect x="34.077" y="40.91" fill="#0C0A0C" width="0.1" height="0.663"/>
			</g>
			<g>
				<path fill="#0C0A0C" d="M35.497,41.896h-0.724c-0.007,0-0.014-0.001-0.02-0.004l-0.641-0.27h-1.22
					c-0.015,0-0.03-0.007-0.04-0.02c-0.009-0.013-0.013-0.029-0.008-0.044l0.42-1.418l1.166-5.333l0.097,0.021l-1.167,5.337
					l-0.402,1.357h1.163c0.006,0,0.013,0.001,0.019,0.003l0.642,0.269h0.715V41.896z"/>
			</g>
			<g>
				<path fill="#0C0A0C" d="M28.586,48.146c-0.009,0-0.019-0.003-0.027-0.009c-0.018-0.011-0.026-0.034-0.021-0.056l1.076-3.654
					l-3.128-4.749c-0.004-0.008-0.007-0.017-0.008-0.025l-0.2-5.167c-0.001-0.021,0.012-0.042,0.032-0.049
					c0.02-0.008,0.043-0.001,0.057,0.016l1.766,2.213h3.397l1.981-1.686l0.064,0.077l-1.996,1.696
					c-0.009,0.007-0.021,0.012-0.032,0.012h-3.439c-0.016,0-0.03-0.007-0.04-0.019l-1.686-2.113l0.193,5.001l3.133,4.758
					c0.008,0.013,0.01,0.027,0.006,0.042l-1.035,3.515l1.212-1.037l1.397-3.958c0.003-0.008,0.007-0.015,0.014-0.021l1.554-1.397
					l0.066,0.075l-1.545,1.388l-1.398,3.958c-0.002,0.009-0.007,0.016-0.014,0.021l-1.35,1.155
					C28.609,48.142,28.598,48.146,28.586,48.146z"/>
			</g>
			<g>
				<path fill="#0C0A0C" d="M35.492,47.063l-1.954-0.221c-0.011-0.002-0.02-0.006-0.028-0.013l-1.618-1.45
					c-0.019-0.016-0.022-0.044-0.008-0.064c0.014-0.021,0.042-0.028,0.064-0.017l1.484,0.763l2.071,0.251l-0.012,0.1l-2.08-0.253
					c-0.006,0-0.012-0.002-0.017-0.005l-1.147-0.59l1.318,1.181l1.938,0.219L35.492,47.063z"/>
			</g>
			<g>
				
					<rect x="33.134" y="46.401" transform="matrix(0.1822 0.9833 -0.9833 0.1822 73.0557 5.0689)" fill="#0C0A0C" width="0.694" height="0.1"/>
			</g>
			<g>
				<path fill="#0C0A0C" d="M30.414,45.556l-0.011-0.099l1.506-0.161l1.608-0.982c0.008-0.004,0.017-0.007,0.026-0.007h1.418
					c0.011,0,0.022,0.003,0.031,0.01l0.537,0.432c0.018,0.015,0.022,0.039,0.012,0.061c-0.01,0.021-0.033,0.031-0.055,0.026
					l-0.624-0.156l-1.485,0.032l-1.229,0.583h3.35v0.1h-3.568L30.414,45.556z M33.558,44.405l-0.797,0.487l0.583-0.276
					c0.006-0.004,0.013-0.006,0.021-0.006l1.502-0.03c0.004-0.001,0.008,0,0.013,0.001l0.41,0.103l-0.345-0.278H33.558z"/>
			</g>
			<g>
				<rect x="34.951" y="42.16" fill="#0C0A0C" width="0.1" height="2.197"/>
			</g>
			<g>
				
					<rect x="26.443" y="44.453" transform="matrix(0.9984 0.0557 -0.0557 0.9984 2.5217 -1.4249)" fill="#0C0A0C" width="0.736" height="0.1"/>
			</g>
			<g>
				<path fill="#0C0A0C" d="M25.852,41.486l-0.59-0.149c-0.014-0.003-0.025-0.012-0.032-0.025l-1.687-3.171
					c-0.003-0.006-0.005-0.012-0.006-0.018l-0.42-3.403c-0.001-0.01,0-0.019,0.004-0.026l0.567-1.219
					c0.011-0.022,0.036-0.035,0.06-0.027l0.66,0.205l-0.03,0.095l-0.618-0.192l-0.543,1.167l0.418,3.379l1.672,3.145l0.57,0.145
					L25.852,41.486z"/>
			</g>
			<g>
				<path fill="#0C0A0C" d="M24.957,39.994c-0.018,0-0.035-0.009-0.044-0.025l-0.867-1.613c-0.003-0.006-0.005-0.013-0.005-0.02
					l-0.205-2.979l-0.201,2.763l-0.1-0.007l0.252-3.466c0.002-0.023,0.019-0.042,0.041-0.046s0.045,0.008,0.054,0.028l1.271,2.816
					c0.006,0.015,0.006,0.031-0.002,0.045l-0.473,0.849l0.274,1.177l0.637,0.317c0.02,0.011,0.03,0.032,0.027,0.055
					c-0.004,0.021-0.022,0.038-0.044,0.04l-0.611,0.064C24.96,39.994,24.958,39.994,24.957,39.994z M24.14,38.318l0.845,1.573
					l0.409-0.044l-0.506-0.252c-0.014-0.007-0.023-0.02-0.026-0.034l-0.284-1.218c-0.002-0.013,0-0.024,0.006-0.036l0.47-0.844
					l-1.146-2.54L24.14,38.318z"/>
			</g>
			<g>
				<path fill="#0C0A0C" d="M23.17,34.764l-0.009-0.1l0.623-0.059L23.684,33.5l0.099-0.01l0.105,1.156
					c0.003,0.027-0.018,0.052-0.044,0.055L23.17,34.764z"/>
			</g>
			<g>
				<path fill="#0C0A0C" d="M33.495,50.963l-0.3-1.435c-0.003-0.015,0.001-0.03,0.011-0.042l0.693-0.829
					c0.009-0.012,0.023-0.019,0.038-0.019h1.56v0.1H33.96l-0.663,0.794l0.294,1.41L33.495,50.963z"/>
			</g>
			<g>
				<path fill="#0C0A0C" d="M33.244,49.568c-0.007,0-0.014-0.001-0.021-0.004l-2.835-1.256c-0.013-0.005-0.022-0.016-0.027-0.027
					l-0.473-1.325l0.093-0.033l0.466,1.304l2.715,1.202l-1.285-4.07l0.095-0.03l1.318,4.176c0.006,0.019,0,0.039-0.014,0.052
					C33.269,49.564,33.256,49.568,33.244,49.568z"/>
			</g>
			<g>
				
					<rect x="32.338" y="48.01" transform="matrix(0.7323 0.681 -0.681 0.7323 41.6334 -9.7844)" fill="#0C0A0C" width="1.847" height="0.1"/>
			</g>
			<g>
				<path fill="#0C0A0C" d="M23.858,30.831l-0.04-0.091l0.905-0.391l0.917-2.271l0.093,0.037l-0.925,2.29
					c-0.005,0.012-0.014,0.022-0.026,0.027L23.858,30.831z"/>
			</g>
			<g>
				<path fill="#0C0A0C" d="M25.06,37.473l-0.417-3.746l0.07-3.341l0.378-6.662c0.001-0.019,0.013-0.036,0.03-0.043
					s0.038-0.004,0.052,0.008l1.26,1.072l-0.064,0.076l-1.185-1.006l-0.373,6.559l-0.071,3.333l0.417,3.738L25.06,37.473z"/>
			</g>
			<g>
				<path fill="#0C0A0C" d="M30.404,48.313l-1.823-0.167c-0.018-0.003-0.035-0.015-0.042-0.032l-1.408-3.57l-1.052-3.787
					c-0.003-0.009-0.002-0.021,0.001-0.03l0.399-1.093c0.005-0.014,0.017-0.024,0.031-0.029c0.015-0.006,0.03-0.003,0.043,0.006
					l3.118,2.06l3.62-1.56l0.04,0.091l-3.645,1.57c-0.016,0.007-0.033,0.005-0.047-0.004l-3.088-2.04l-0.372,1.019l1.045,3.766
					l1.395,3.537l1.792,0.166L30.404,48.313z"/>
			</g>
			<g>
				<path fill="#0C0A0C" d="M26.081,40.76l-0.854-2.411c-0.002-0.007-0.003-0.014-0.003-0.021l0.309-3.682l0.105-6.551
					c0-0.026,0.021-0.048,0.048-0.049l2.511-0.105l3.64-0.871c0.006-0.001,0.011-0.001,0.018-0.001l3.649,0.41l-0.011,0.099
					l-3.641-0.409l-3.641,0.87l-2.474,0.104l-0.104,6.507l-0.308,3.674l0.851,2.401L26.081,40.76z"/>
			</g>
			<g>
				<polygon fill="#0C0A0C" points="32.591,32.431 31.798,27.127 31.798,27.115 32.194,23.019 32.294,23.028 31.898,27.118 
					32.689,32.417 				"/>
			</g>
			<g>
				<polygon fill="#0C0A0C" points="25.722,28.132 25.652,28.062 28.5,25.245 30.416,22.668 30.495,22.727 28.575,25.311 				"/>
			</g>
			<g>
				<path fill="#0C0A0C" d="M29.718,44.419h-0.1v-2.694c0-0.018,0.01-0.036,0.027-0.044c0.017-0.009,0.037-0.007,0.052,0.005
					l1.67,1.244l2.202,1.384l-0.053,0.084l-2.206-1.386l-1.594-1.188V44.419z"/>
			</g>
			<g>
				<path fill="#0C0A0C" d="M26.527,39.7c-0.013,0-0.026-0.006-0.036-0.016l-1.254-1.319l0.072-0.067l1.234,1.298l2.009-0.497
					l4.324-1.386l0.031,0.095l-4.328,1.386l-2.041,0.506C26.535,39.699,26.531,39.7,26.527,39.7z"/>
			</g>
			<g>
				<polygon fill="#0C0A0C" points="29.622,41.744 28.519,39.165 28.516,39.155 28.059,36.724 28.157,36.705 28.612,39.132 
					29.714,41.706 				"/>
			</g>
			<g>
				<path fill="#0C0A0C" d="M30.638,35.71c-0.479,0-0.868-0.39-0.868-0.868c0-0.228,0.087-0.443,0.245-0.604l0.072,0.069
					c-0.14,0.144-0.217,0.334-0.217,0.535c0,0.424,0.345,0.768,0.768,0.768c0.424,0,0.769-0.344,0.769-0.768
					c0-0.201-0.077-0.391-0.217-0.535l0.071-0.069c0.158,0.161,0.245,0.376,0.245,0.604C31.506,35.32,31.117,35.71,30.638,35.71z"/>
			</g>
			<g>
				<circle fill="#0C0A0C" cx="30.638" cy="34.841" r="0.347"/>
				<path fill="#0C0A0C" d="M30.638,35.237c-0.219,0-0.396-0.178-0.396-0.396s0.177-0.397,0.396-0.397
					c0.219,0,0.396,0.178,0.396,0.397S30.856,35.237,30.638,35.237z M30.638,34.544c-0.164,0-0.297,0.134-0.297,0.297
					s0.133,0.297,0.297,0.297c0.164,0,0.297-0.134,0.297-0.297S30.801,34.544,30.638,34.544z"/>
			</g>
			<g>
				<path fill="#0C0A0C" d="M25.582,34.701c-0.013,0-0.026-0.006-0.036-0.016l-0.891-0.93l0.072-0.069l0.872,0.91l0.675-0.154
					l-0.111-1.237l0.099-0.009l0.116,1.282c0.002,0.024-0.015,0.047-0.039,0.053l-0.746,0.168
					C25.589,34.7,25.585,34.701,25.582,34.701z"/>
			</g>
		</g>
	</g>
	<g>
		<g>
			<path fill="#0C0A0C" d="M52.173,19.846h-0.1v-2.148h-2.148v-0.1h2.198c0.027,0,0.05,0.022,0.05,0.049V19.846z"/>
		</g>
		<g>
			<path fill="#0C0A0C" d="M18.921,19.846h-0.1v-2.199c0-0.027,0.022-0.049,0.05-0.049h2.198v0.1h-2.148V19.846z"/>
		</g>
		<g>
			<path fill="#0C0A0C" d="M52.123,53.057h-2.198v-0.099h2.148V50.81h0.1v2.197C52.173,53.034,52.15,53.057,52.123,53.057z"/>
		</g>
		<g>
			<path fill="#0C0A0C" d="M21.069,53.057h-2.198c-0.027,0-0.05-0.022-0.05-0.05V50.81h0.1v2.148h2.148V53.057z"/>
		</g>
	</g>
	<g>
		<g>
			<g>
				<circle fill="#0C0A0C" stroke="#E8EDEF" stroke-width="0.5" stroke-miterlimit="10" cx="42.459" cy="25.281" r="0.552"/>
				<circle fill="#F9FBFC" cx="42.459" cy="25.281" r="0.295"/>
			</g>
		</g>
		<g>
			<g>
				<circle fill="#0C0A0C" stroke="#E8EDEF" stroke-width="0.5" stroke-miterlimit="10" cx="38.75" cy="23.023" r="0.552"/>
				<circle fill="#F9FBFC" cx="38.75" cy="23.023" r="0.295"/>
			</g>
		</g>
		<g>
			<g>
				<circle fill="#0C0A0C" stroke="#E8EDEF" stroke-width="0.5" stroke-miterlimit="10" cx="39.146" cy="27.12" r="0.552"/>
				<circle fill="#F9FBFC" cx="39.146" cy="27.12" r="0.296"/>
			</g>
		</g>
		<g>
			<g>
				<circle fill="#0C0A0C" stroke="#E8EDEF" stroke-width="0.5" stroke-miterlimit="10" cx="40.539" cy="22.697" r="0.552"/>
				<circle fill="#F9FBFC" cx="40.539" cy="22.697" r="0.295"/>
			</g>
		</g>
		<g>
			<g>
				<circle fill="#0C0A0C" stroke="#E8EDEF" stroke-width="0.5" stroke-miterlimit="10" cx="38.102" cy="19.358" r="0.552"/>
				<circle fill="#F9FBFC" cx="38.103" cy="19.358" r="0.296"/>
			</g>
		</g>
		<g>
			<g>
				<circle fill="#0C0A0C" stroke="#E8EDEF" stroke-width="0.5" stroke-miterlimit="10" cx="42.796" cy="27.992" r="0.553"/>
				<circle fill="#F9FBFC" cx="42.796" cy="27.992" r="0.296"/>
			</g>
		</g>
		<g>
			<g>
				<circle fill="#0C0A0C" stroke="#E8EDEF" stroke-width="0.5" stroke-miterlimit="10" cx="45.308" cy="28.096" r="0.552"/>
				<circle fill="#F9FBFC" cx="45.308" cy="28.096" r="0.296"/>
			</g>
		</g>
		<g>
			<g>
				<circle fill="#0C0A0C" stroke="#E8EDEF" stroke-width="0.5" stroke-miterlimit="10" cx="46.231" cy="30.386" r="0.553"/>
				<circle fill="#F9FBFC" cx="46.232" cy="30.386" r="0.296"/>
			</g>
		</g>
		<g>
			<g>
				<circle fill="#0C0A0C" stroke="#E8EDEF" stroke-width="0.5" stroke-miterlimit="10" cx="47.156" cy="34.65" r="0.553"/>
				<circle fill="#F9FBFC" cx="47.156" cy="34.65" r="0.296"/>
			</g>
		</g>
		<g>
			<g>
				<circle fill="#0C0A0C" stroke="#E8EDEF" stroke-width="0.5" stroke-miterlimit="10" cx="46.369" cy="38.332" r="0.552"/>
				<circle fill="#F9FBFC" cx="46.369" cy="38.332" r="0.295"/>
			</g>
		</g>
		<g>
			<g>
				<circle fill="#0C0A0C" stroke="#E8EDEF" stroke-width="0.5" stroke-miterlimit="10" cx="42.514" cy="31.479" r="0.552"/>
				<circle fill="#F9FBFC" cx="42.514" cy="31.479" r="0.296"/>
			</g>
		</g>
		<g>
			<g>
				<circle fill="#0C0A0C" stroke="#E8EDEF" stroke-width="0.5" stroke-miterlimit="10" cx="42.745" cy="35.112" r="0.552"/>
				<circle fill="#F9FBFC" cx="42.745" cy="35.112" r="0.296"/>
			</g>
		</g>
		<g>
			<g>
				<circle fill="#0C0A0C" stroke="#E8EDEF" stroke-width="0.5" stroke-miterlimit="10" cx="39.489" cy="33.684" r="0.552"/>
				<circle fill="#F9FBFC" cx="39.489" cy="33.684" r="0.295"/>
			</g>
		</g>
		<g>
			<g>
				<circle fill="#0C0A0C" stroke="#E8EDEF" stroke-width="0.5" stroke-miterlimit="10" cx="42.886" cy="36.715" r="0.552"/>
				<circle fill="#F9FBFC" cx="42.886" cy="36.715" r="0.295"/>
			</g>
		</g>
		<g>
			<g>
				<circle fill="#0C0A0C" stroke="#E8EDEF" stroke-width="0.5" stroke-miterlimit="10" cx="38.102" cy="37.779" r="0.552"/>
				<circle fill="#F9FBFC" cx="38.103" cy="37.779" r="0.296"/>
			</g>
		</g>
		<g>
			<g>
				<circle fill="#0C0A0C" stroke="#E8EDEF" stroke-width="0.5" stroke-miterlimit="10" cx="44.667" cy="34.482" r="0.552"/>
				<circle fill="#F9FBFC" cx="44.667" cy="34.482" r="0.296"/>
			</g>
		</g>
		<g>
			<g>
				<circle fill="#0C0A0C" stroke="#E8EDEF" stroke-width="0.5" stroke-miterlimit="10" cx="37.681" cy="40.154" r="0.552"/>
				<circle fill="#F9FBFC" cx="37.682" cy="40.154" r="0.296"/>
			</g>
		</g>
		<g>
			<g>
				<circle fill="#0C0A0C" stroke="#E8EDEF" stroke-width="0.5" stroke-miterlimit="10" cx="38.102" cy="41.573" r="0.552"/>
				<circle fill="#F9FBFC" cx="38.103" cy="41.573" r="0.296"/>
			</g>
		</g>
		<g>
			<g>
				<circle fill="#0C0A0C" stroke="#E8EDEF" stroke-width="0.5" stroke-miterlimit="10" cx="36.222" cy="41.846" r="0.553"/>
				<circle fill="#F9FBFC" cx="36.222" cy="41.846" r="0.296"/>
			</g>
		</g>
		<g>
			<g>
				<circle fill="#0C0A0C" stroke="#E8EDEF" stroke-width="0.5" stroke-miterlimit="10" cx="38.102" cy="35.008" r="0.552"/>
				<circle fill="#F9FBFC" cx="38.103" cy="35.008" r="0.296"/>
			</g>
		</g>
		<g>
			<g>
				<circle fill="#0C0A0C" stroke="#E8EDEF" stroke-width="0.5" stroke-miterlimit="10" cx="44.467" cy="39.65" r="0.552"/>
				<circle fill="#F9FBFC" cx="44.467" cy="39.65" r="0.295"/>
			</g>
		</g>
		<g>
			<g>
				<circle fill="#0C0A0C" stroke="#E8EDEF" stroke-width="0.5" stroke-miterlimit="10" cx="41.327" cy="41.725" r="0.552"/>
				<circle fill="#F9FBFC" cx="41.327" cy="41.725" r="0.295"/>
			</g>
		</g>
		<g>
			<g>
				<circle fill="#0C0A0C" stroke="#E8EDEF" stroke-width="0.5" stroke-miterlimit="10" cx="39.069" cy="45.343" r="0.552"/>
				<circle fill="#F9FBFC" cx="39.068" cy="45.343" r="0.296"/>
			</g>
		</g>
		<g>
			<g>
				<circle fill="#0C0A0C" stroke="#E8EDEF" stroke-width="0.5" stroke-miterlimit="10" cx="42.409" cy="48.096" r="0.552"/>
				<circle fill="#F9FBFC" cx="42.408" cy="48.096" r="0.296"/>
			</g>
		</g>
		<g>
			<g>
				<circle fill="#0C0A0C" stroke="#E8EDEF" stroke-width="0.5" stroke-miterlimit="10" cx="43.816" cy="44.523" r="0.552"/>
				<circle fill="#F9FBFC" cx="43.816" cy="44.523" r="0.295"/>
			</g>
		</g>
		<g>
			<g>
				<circle fill="#0C0A0C" stroke="#E8EDEF" stroke-width="0.5" stroke-miterlimit="10" cx="41.059" cy="46.94" r="0.552"/>
				<circle fill="#F9FBFC" cx="41.059" cy="46.94" r="0.296"/>
			</g>
		</g>
		<g>
			<g>
				<circle fill="#0C0A0C" stroke="#E8EDEF" stroke-width="0.5" stroke-miterlimit="10" cx="37.057" cy="48.688" r="0.552"/>
				<circle fill="#F9FBFC" cx="37.058" cy="48.688" r="0.296"/>
			</g>
		</g>
		<g>
			<g>
				<circle fill="#0C0A0C" stroke="#E8EDEF" stroke-width="0.5" stroke-miterlimit="10" cx="37.451" cy="50.952" r="0.553"/>
				<circle fill="#F9FBFC" cx="37.451" cy="50.952" r="0.296"/>
			</g>
		</g>
		<g>
			<g>
				<circle fill="#0C0A0C" stroke="#E8EDEF" stroke-width="0.5" stroke-miterlimit="10" cx="38.354" cy="32.424" r="0.553"/>
				<circle fill="#F9FBFC" cx="38.354" cy="32.424" r="0.296"/>
			</g>
		</g>
		<g>
			<g>
				<circle fill="#0C0A0C" stroke="#E8EDEF" stroke-width="0.5" stroke-miterlimit="10" cx="36.516" cy="34.818" r="0.552"/>
				<circle fill="#F9FBFC" cx="36.516" cy="34.818" r="0.296"/>
			</g>
		</g>
	</g>
	<g>
		<g>
			<g>
				<circle fill="#0C0A0C" stroke="#E8EDEF" stroke-width="0.5" stroke-miterlimit="10" cx="28.629" cy="25.281" r="0.552"/>
				<circle fill="#F9FBFC" cx="28.629" cy="25.281" r="0.296"/>
			</g>
		</g>
		<g>
			<g>
				<circle fill="#0C0A0C" stroke="#E8EDEF" stroke-width="0.5" stroke-miterlimit="10" cx="32.339" cy="23.023" r="0.552"/>
				<circle fill="#F9FBFC" cx="32.339" cy="23.023" r="0.296"/>
			</g>
		</g>
		<g>
			<g>
				<circle fill="#0C0A0C" stroke="#E8EDEF" stroke-width="0.5" stroke-miterlimit="10" cx="31.942" cy="27.12" r="0.552"/>
				<circle fill="#F9FBFC" cx="31.942" cy="27.12" r="0.296"/>
			</g>
		</g>
		<g>
			<g>
				<circle fill="#0C0A0C" stroke="#E8EDEF" stroke-width="0.5" stroke-miterlimit="10" cx="30.55" cy="22.697" r="0.552"/>
				<circle fill="#F9FBFC" cx="30.55" cy="22.697" r="0.296"/>
			</g>
		</g>
		<g>
			<g>
				<circle fill="#0C0A0C" stroke="#E8EDEF" stroke-width="0.5" stroke-miterlimit="10" cx="32.987" cy="19.358" r="0.552"/>
				<circle fill="#F9FBFC" cx="32.987" cy="19.358" r="0.296"/>
			</g>
		</g>
		<g>
			<g>
				<circle fill="#0C0A0C" stroke="#E8EDEF" stroke-width="0.5" stroke-miterlimit="10" cx="28.293" cy="27.992" r="0.552"/>
				<circle fill="#F9FBFC" cx="28.293" cy="27.992" r="0.295"/>
			</g>
		</g>
		<g>
			<g>
				<circle fill="#0C0A0C" stroke="#E8EDEF" stroke-width="0.5" stroke-miterlimit="10" cx="25.781" cy="28.096" r="0.552"/>
				<circle fill="#F9FBFC" cx="25.781" cy="28.096" r="0.296"/>
			</g>
		</g>
		<g>
			<g>
				<circle fill="#0C0A0C" stroke="#E8EDEF" stroke-width="0.5" stroke-miterlimit="10" cx="24.857" cy="30.386" r="0.552"/>
				<circle fill="#F9FBFC" cx="24.857" cy="30.386" r="0.296"/>
			</g>
		</g>
		<g>
			<g>
				<circle fill="#0C0A0C" stroke="#E8EDEF" stroke-width="0.5" stroke-miterlimit="10" cx="23.933" cy="34.65" r="0.552"/>
				<circle fill="#F9FBFC" cx="23.933" cy="34.65" r="0.296"/>
			</g>
		</g>
		<g>
			<g>
				<circle fill="#0C0A0C" stroke="#E8EDEF" stroke-width="0.5" stroke-miterlimit="10" cx="24.721" cy="38.332" r="0.552"/>
				<circle fill="#F9FBFC" cx="24.721" cy="38.332" r="0.296"/>
			</g>
		</g>
		<g>
			<g>
				<circle fill="#0C0A0C" stroke="#E8EDEF" stroke-width="0.5" stroke-miterlimit="10" cx="28.575" cy="31.479" r="0.552"/>
				<circle fill="#F9FBFC" cx="28.575" cy="31.479" r="0.296"/>
			</g>
		</g>
		<g>
			<g>
				<circle fill="#0C0A0C" stroke="#E8EDEF" stroke-width="0.5" stroke-miterlimit="10" cx="28.344" cy="35.112" r="0.552"/>
				<circle fill="#F9FBFC" cx="28.344" cy="35.112" r="0.296"/>
			</g>
		</g>
		<g>
			<g>
				<circle fill="#0C0A0C" stroke="#E8EDEF" stroke-width="0.5" stroke-miterlimit="10" cx="31.6" cy="33.684" r="0.552"/>
				<circle fill="#F9FBFC" cx="31.601" cy="33.684" r="0.296"/>
			</g>
		</g>
		<g>
			<g>
				<circle fill="#0C0A0C" stroke="#E8EDEF" stroke-width="0.5" stroke-miterlimit="10" cx="28.203" cy="36.715" r="0.552"/>
				<circle fill="#F9FBFC" cx="28.202" cy="36.715" r="0.296"/>
			</g>
		</g>
		<g>
			<g>
				<circle fill="#0C0A0C" stroke="#E8EDEF" stroke-width="0.5" stroke-miterlimit="10" cx="26.422" cy="34.482" r="0.552"/>
				<circle fill="#F9FBFC" cx="26.422" cy="34.482" r="0.295"/>
			</g>
		</g>
		<g>
			<g>
				<circle fill="#0C0A0C" stroke="#E8EDEF" stroke-width="0.5" stroke-miterlimit="10" cx="33.407" cy="40.154" r="0.552"/>
				<circle fill="#F9FBFC" cx="33.407" cy="40.154" r="0.296"/>
			</g>
		</g>
		<g>
			<g>
				<circle fill="#0C0A0C" stroke="#E8EDEF" stroke-width="0.5" stroke-miterlimit="10" cx="32.987" cy="41.573" r="0.552"/>
				<circle fill="#F9FBFC" cx="32.987" cy="41.573" r="0.296"/>
			</g>
		</g>
		<g>
			<g>
				<circle fill="#0C0A0C" stroke="#E8EDEF" stroke-width="0.5" stroke-miterlimit="10" cx="34.867" cy="41.846" r="0.552"/>
				<circle fill="#F9FBFC" cx="34.867" cy="41.846" r="0.296"/>
			</g>
		</g>
		<g>
			<g>
				<circle fill="#0C0A0C" stroke="#E8EDEF" stroke-width="0.5" stroke-miterlimit="10" cx="32.987" cy="35.008" r="0.552"/>
				<circle fill="#F9FBFC" cx="32.987" cy="35.008" r="0.296"/>
			</g>
		</g>
		<g>
			<g>
				<circle fill="#0C0A0C" stroke="#E8EDEF" stroke-width="0.5" stroke-miterlimit="10" cx="32.893" cy="37.779" r="0.552"/>
				<circle fill="#F9FBFC" cx="32.893" cy="37.779" r="0.296"/>
			</g>
		</g>
		<g>
			<g>
				<circle fill="#0C0A0C" stroke="#E8EDEF" stroke-width="0.5" stroke-miterlimit="10" cx="26.622" cy="39.65" r="0.552"/>
				<circle fill="#F9FBFC" cx="26.622" cy="39.65" r="0.296"/>
			</g>
		</g>
		<g>
			<g>
				<circle fill="#0C0A0C" stroke="#E8EDEF" stroke-width="0.5" stroke-miterlimit="10" cx="29.762" cy="41.725" r="0.552"/>
				<circle fill="#F9FBFC" cx="29.762" cy="41.725" r="0.296"/>
			</g>
		</g>
		<g>
			<g>
				<circle fill="#0C0A0C" stroke="#E8EDEF" stroke-width="0.5" stroke-miterlimit="10" cx="32.021" cy="45.343" r="0.552"/>
				<circle fill="#F9FBFC" cx="32.021" cy="45.343" r="0.296"/>
			</g>
		</g>
		<g>
			<g>
				<circle fill="#0C0A0C" stroke="#E8EDEF" stroke-width="0.5" stroke-miterlimit="10" cx="28.68" cy="48.096" r="0.552"/>
				<circle fill="#F9FBFC" cx="28.68" cy="48.096" r="0.296"/>
			</g>
		</g>
		<g>
			<g>
				<circle fill="#0C0A0C" stroke="#E8EDEF" stroke-width="0.5" stroke-miterlimit="10" cx="27.273" cy="44.523" r="0.552"/>
				<circle fill="#F9FBFC" cx="27.273" cy="44.523" r="0.296"/>
			</g>
		</g>
		<g>
			<g>
				<circle fill="#0C0A0C" stroke="#E8EDEF" stroke-width="0.5" stroke-miterlimit="10" cx="30.03" cy="46.94" r="0.552"/>
				<circle fill="#F9FBFC" cx="30.03" cy="46.94" r="0.296"/>
			</g>
		</g>
		<g>
			<g>
				<circle fill="#0C0A0C" stroke="#E8EDEF" stroke-width="0.5" stroke-miterlimit="10" cx="34.032" cy="48.688" r="0.552"/>
				<circle fill="#F9FBFC" cx="34.032" cy="48.688" r="0.296"/>
			</g>
		</g>
		<g>
			<g>
				<circle fill="#0C0A0C" stroke="#E8EDEF" stroke-width="0.5" stroke-miterlimit="10" cx="33.638" cy="50.952" r="0.552"/>
				<circle fill="#F9FBFC" cx="33.638" cy="50.952" r="0.296"/>
			</g>
		</g>
		<g>
			<g>
				<circle fill="#0C0A0C" stroke="#E8EDEF" stroke-width="0.5" stroke-miterlimit="10" cx="32.735" cy="32.424" r="0.552"/>
				<circle fill="#F9FBFC" cx="32.735" cy="32.424" r="0.296"/>
			</g>
		</g>
		<g>
			<g>
				<circle fill="#0C0A0C" stroke="#E8EDEF" stroke-width="0.5" stroke-miterlimit="10" cx="34.573" cy="34.818" r="0.552"/>
				<circle fill="#F9FBFC" cx="34.573" cy="34.818" r="0.296"/>
			</g>
		</g>
	</g>
</g>
</svg>
