<?xml version="1.0" encoding="iso-8859-1"?>
<!-- Generator: Adobe Illustrator 19.0.0, SVG Export Plug-In . SVG Version: 6.00 Build 0)  -->
<svg version="1.1" id="Capa_1" xmlns="http://www.w3.org/2000/svg" xmlns:xlink="http://www.w3.org/1999/xlink" x="0px" y="0px"
	 viewBox="0 0 512.197 512.197" style="enable-background:new 0 0 512.197 512.197;" xml:space="preserve">
<path style="fill:#E1E6E8;" d="M505.698,251.374c0-138.634-114.215-252.062-253.637-251.274S0,114.316,0,253.737
	c0.788,139.422,114.215,252.849,253.637,252.062C393.058,505.799,505.698,391.584,505.698,251.374L505.698,251.374z"/>
<path style="fill:#FCBD5E;" d="M277.268,112.741c0,7.089-0.788,13.391-2.363,19.692c-21.268-18.117-48.049-29.145-77.982-29.145
	c-29.145,0-56.714,11.028-77.982,29.145c-1.575-6.302-2.363-12.603-2.363-19.692c0-46.474,36.234-84.283,80.345-84.283
	C241.034,27.67,277.268,65.479,277.268,112.741z"/>
<path style="fill:#183651;" d="M274.905,139.522c-1.575,0-3.938-0.788-4.726-1.575c-20.48-17.329-46.474-26.782-73.255-26.782
	s-52.775,9.452-73.255,26.782c-2.363,1.575-4.726,2.363-7.877,1.575c-2.363-0.788-4.726-3.151-5.514-5.514
	c-1.575-7.089-2.363-14.178-2.363-21.268c0-51.2,39.385-92.16,88.222-92.16s88.222,41.748,88.222,92.16
	c0,7.089-0.788,14.966-2.363,21.268c-0.788,2.363-2.363,4.726-5.514,5.514C276.48,139.522,275.692,139.522,274.905,139.522z
	 M196.923,35.547c-40.172,0-72.468,34.658-72.468,76.406c0,1.575,0,3.151,0,5.514c21.268-14.178,46.474-22.055,72.468-22.055
	s51.2,7.877,72.468,22.055c0-1.575,0-3.151,0-5.514C269.391,70.205,237.095,35.547,196.923,35.547z"/>
<g>
	<circle style="fill:#173651;" cx="170.929" cy="71.781" r="9.452"/>
	<circle style="fill:#173651;" cx="222.917" cy="71.781" r="9.452"/>
</g>
<g>
	<path style="fill:#183651;" d="M261.514,70.205c-4.726,0-7.877-3.151-7.877-7.877c0-35.446,27.569-62.228,64.591-62.228
		c4.726,0,7.877,3.151,7.877,7.877s-3.151,7.877-7.877,7.877c-28.357,0-48.837,19.692-48.837,46.474
		C269.391,67.054,266.24,70.205,261.514,70.205z"/>
	<path style="fill:#183651;" d="M132.332,70.205c-4.726,0-7.877-3.151-7.877-7.877c0-27.569-19.692-46.474-48.837-46.474
		c-4.726,0-7.877-3.151-7.877-7.877s3.151-7.877,7.877-7.877c37.022,0,64.591,25.994,64.591,62.228
		C140.209,66.267,136.271,70.205,132.332,70.205z"/>
	<path style="fill:#183651;" d="M102.4,155.276H45.686c-3.151,0-6.302-2.363-7.877-5.514L18.905,89.897
		c-1.575-3.938,0.788-8.665,5.514-10.24c3.938-1.575,8.665,0.788,10.24,5.514l17.329,54.351H102.4c4.726,0,7.877,3.151,7.877,7.877
		C110.277,151.337,107.126,155.276,102.4,155.276z"/>
	<path style="fill:#183651;" d="M348.16,155.276h-56.714c-4.726,0-7.877-3.151-7.877-7.877c0-4.726,3.151-7.877,7.877-7.877h51.2
		l17.329-54.351c1.575-3.938,5.514-6.302,10.24-5.514c3.938,1.575,6.302,5.514,5.514,10.24l-20.48,59.865
		C354.462,152.913,351.311,155.276,348.16,155.276z"/>
	<path style="fill:#183651;" d="M24.418,393.159c-3.938-1.575-6.302-5.514-5.514-10.24l18.905-59.865
		c0.788-3.151,3.938-5.514,7.877-5.514H102.4c4.726,0,7.877,3.151,7.877,7.877s-3.151,7.877-7.877,7.877H51.2l-17.329,54.351
		C33.083,392.371,28.357,394.734,24.418,393.159z"/>
	<path style="fill:#183651;" d="M72.468,234.833H7.877c-4.726,0-7.877-3.151-7.877-7.877c0-4.726,3.151-7.877,7.877-7.877H71.68
		c4.726,0,7.877,3.151,7.877,7.877C80.345,230.894,76.406,234.833,72.468,234.833z"/>
</g>
<ellipse style="fill:#FCBD5E;" cx="196.923" cy="247.436" rx="125.243" ry="144.148"/>
<path style="fill:#183651;" d="M196.923,399.461c-73.255,0-133.12-68.529-133.12-152.025s59.865-152.025,133.12-152.025
	s133.12,68.529,133.12,152.025S270.178,399.461,196.923,399.461z M196.923,111.165c-64.591,0-117.366,61.44-117.366,136.271
	s52.775,136.271,117.366,136.271s117.366-61.44,117.366-136.271S261.514,111.165,196.923,111.165z"/>
<path style="fill:#FFFFFF;" d="M196.923,360.864c-51.988,0-94.523-50.412-94.523-113.428c0-62.228,42.535-113.428,94.523-113.428
	s94.523,50.412,94.523,113.428C291.446,309.664,248.911,360.864,196.923,360.864z"/>
<path style="fill:#173651;" d="M230.794,141.885c-10.24-4.726-22.055-7.877-33.871-7.877s-23.631,3.151-33.871,7.877l33.871,218.978
	L230.794,141.885z"/>
<g>
	<rect x="110.277" y="425.454" style="fill:#183651;" width="15.754" height="15.754"/>
	<rect x="158.326" y="425.454" style="fill:#183651;" width="15.754" height="15.754"/>
	<rect x="206.375" y="425.454" style="fill:#183651;" width="15.754" height="15.754"/>
	<rect x="425.354" y="197.811" style="fill:#183651;" width="15.754" height="15.754"/>
	<rect x="425.354" y="149.762" style="fill:#183651;" width="15.754" height="15.754"/>
	<rect x="425.354" y="101.713" style="fill:#183651;" width="15.754" height="15.754"/>
</g>
<path style="fill:#FFFFFF;" d="M353.674,386.857l111.065,110.277c9.452,8.665,23.631,8.665,33.083,0
	c8.665-9.452,8.665-23.631,0-33.083L385.969,353.774L353.674,386.857z"/>
<path style="fill:#183651;" d="M481.28,512.101L481.28,512.101c-8.665,0-15.754-3.151-22.055-9.452L348.16,392.371
	c-1.575-1.575-2.363-3.151-2.363-5.514s0.788-3.938,2.363-5.514l33.083-33.083c3.151-3.151,7.877-3.151,11.028,0l111.065,111.065
	c11.815,11.815,11.815,31.508,0,44.111C497.034,508.95,489.157,512.101,481.28,512.101z M364.702,386.857l105.551,105.551
	c5.514,5.514,15.754,5.514,21.268,0c6.302-6.302,6.302-15.754,0-21.268L385.969,364.802L364.702,386.857z"/>
<ellipse style="fill:#FFFFFF;" cx="340.452" cy="340.355" rx="96.098" ry="96.098"/>
<path style="fill:#183651;" d="M267.028,413.639c-40.96-40.96-40.96-106.338,0-147.298s106.338-40.96,147.298,0
	s40.96,106.338,0,147.298S307.988,454.599,267.028,413.639z M277.268,277.368c-34.658,34.658-34.658,90.585,0,125.243
	s90.585,34.658,125.243,0s34.658-90.585,0-125.243C367.852,242.71,311.926,242.71,277.268,277.368z"/>
<path style="fill:#2AA0DA;" d="M340.283,275.793c-35.446,0-64.591,29.145-64.591,64.591s29.145,64.591,64.591,64.591
	s64.591-29.145,64.591-64.591C404.874,304.15,375.729,275.793,340.283,275.793z"/>
<path style="fill:#FFFFFF;" d="M372.578,316.753c-2.363,2.363-6.302,2.363-8.665,0c-13.391-12.603-33.871-12.603-47.262,0
	c-2.363,2.363-6.302,2.363-8.665,0c-2.363-2.363-2.363-6.302,0-8.665c18.117-18.117,47.262-18.117,64.591,0
	C374.942,310.451,374.942,314.39,372.578,316.753L372.578,316.753z"/>
<g>
</g>
<g>
</g>
<g>
</g>
<g>
</g>
<g>
</g>
<g>
</g>
<g>
</g>
<g>
</g>
<g>
</g>
<g>
</g>
<g>
</g>
<g>
</g>
<g>
</g>
<g>
</g>
<g>
</g>
</svg>
