<svg id="filloutline" height="512" viewBox="0 0 64 64" width="512" xmlns="http://www.w3.org/2000/svg"><path d="m32 3a14 14 0 1 0 14 14 14 14 0 0 0 -14-14zm0 18a4 4 0 1 1 4-4 4 4 0 0 1 -4 4z" fill="#ffd884"/><path d="m20 17a13.992 13.992 0 0 1 13-13.95c-.332-.023-.662-.05-1-.05a14 14 0 0 0 0 28c.338 0 .668-.027 1-.05a13.992 13.992 0 0 1 -13-13.95z" fill="#dda76c"/><path d="m32 3a14.021 14.021 0 0 0 -1.5.083 14 14 0 0 1 0 27.834 14 14 0 1 0 1.5-27.917z" fill="#fff"/><path d="m43 17h-2a9.01 9.01 0 0 0 -9-9v-2a11.013 11.013 0 0 1 11 11z" fill="#dda76c"/><path d="m14 29h36v32h-36z" fill="#7c9faf"/><path d="m42 29h8v32h-8z" fill="#3a5565"/><path d="m36 35h-28l6-6h28z" fill="#cde2dd"/><path d="m50 29h-8l6 6h8z" fill="#cde2dd"/><path d="m32 12a5 5 0 1 0 5 5 5.006 5.006 0 0 0 -5-5zm0 8a3 3 0 1 1 3-3 3 3 0 0 1 -3 3z"/><path d="m41 17h2a11.013 11.013 0 0 0 -11-11v2a9.01 9.01 0 0 1 9 9z"/><path d="m14 62h36a1 1 0 0 0 1-1v-25h5a1 1 0 0 0 .707-1.707l-6-6a1 1 0 0 0 -.707-.293h-7.8a15 15 0 1 0 -20.4 0h-7.8a1 1 0 0 0 -.707.293l-6 6a1 1 0 0 0 .707 1.707h5v25a1 1 0 0 0 1 1zm1-2v-24h21a1 1 0 0 0 .707-.293l4.293-4.293v28.586zm34 0h-6v-28.586l4.293 4.293a1 1 0 0 0 .707.293h1zm.586-30 4 4h-5.172l-4-4zm-30.586-13a13 13 0 1 1 19.907 11h-13.814a12.9 12.9 0 0 1 -6.093-11zm-4.586 13h25.172l-4 4h-25.172z"/></svg>